<svg width="430" height="185" viewBox="0 0 430 185" fill="none" xmlns="http://www.w3.org/2000/svg">
<mask id="mask0" mask-type="alpha" maskUnits="userSpaceOnUse" x="0" y="0" width="430" height="185">
<rect width="430" height="185" fill="#2173FF"/>
</mask>
<g mask="url(#mask0)">
<g clip-path="url(#clip0)">
<path d="M430.8 -52H0V217.25H430.8V-52Z" fill="#001932"/>
<path d="M285.106 -3.83419V15.3125L280.319 20.0991V-8.62085L285.106 -3.83419Z" fill="#B9C5E0"/>
<path d="M265.959 -22.9808L275.532 -13.4075V24.8858L265.959 34.4592V-22.9808Z" fill="#B9C5E0"/>
<path d="M280.319 -8.6208V20.0992L275.533 24.8859V-13.4075L280.319 -8.6208Z" fill="#325078"/>
<path d="M294.679 5.7391L285.106 15.3124V-3.83423L294.679 5.7391Z" fill="#325078"/>
<path d="M285.106 9.32917C283.123 9.32917 281.516 7.72188 281.516 5.73917C281.516 3.75647 283.123 2.14917 285.106 2.14917C287.088 2.14917 288.696 3.75647 288.696 5.73917C288.696 7.72188 287.088 9.32917 285.106 9.32917Z" fill="#FFF5FF"/>
<path d="M285.106 8.1325C283.784 8.1325 282.712 7.06097 282.712 5.73916C282.712 4.41736 283.784 3.34583 285.106 3.34583C286.427 3.34583 287.499 4.41736 287.499 5.73916C287.499 7.06097 286.427 8.1325 285.106 8.1325Z" fill="#002D96"/>
<path d="M256.386 -3.83423V15.3124L265.959 5.7391L256.386 -3.83423Z" fill="#325078"/>
<path d="M260.574 149.339H251.001V168.486H260.574V149.339Z" fill="#325078"/>
<path d="M239.034 168.486C233.739 168.486 229.461 164.208 229.461 158.912C229.461 153.617 233.739 149.339 239.034 149.339H251.001C256.296 149.339 260.574 153.617 260.574 158.912C260.574 164.208 256.296 168.486 251.001 168.486H239.034Z" fill="#B9C5E0"/>
<path d="M236.641 161.306C237.963 161.306 239.034 160.234 239.034 158.912C239.034 157.591 237.963 156.519 236.641 156.519C235.319 156.519 234.248 157.591 234.248 158.912C234.248 160.234 235.319 161.306 236.641 161.306Z" fill="#FFF5FF"/>
<path d="M236.641 160.109C237.302 160.109 237.838 159.573 237.838 158.913C237.838 158.252 237.302 157.716 236.641 157.716C235.98 157.716 235.444 158.252 235.444 158.913C235.444 159.573 235.98 160.109 236.641 160.109Z" fill="#002D96"/>
<path d="M267.754 163.699C269.071 163.699 270.148 162.622 270.148 161.306C270.148 159.989 269.071 158.912 267.754 158.912C269.071 158.912 270.148 157.835 270.148 156.519C270.148 155.203 269.071 154.126 267.754 154.126L260.574 158.912L267.754 163.699Z" fill="#002D96"/>
<path d="M243.821 158.912C243.821 161.545 245.975 163.699 248.607 163.699C251.24 163.699 253.394 161.545 253.394 158.912H243.821Z" fill="#002D96"/>
<path d="M388.318 117.029L390.442 119.153C386.404 121.965 377.698 126.603 364.385 126.603C345.238 126.603 335.665 117.029 335.665 117.029H388.318Z" fill="#B9C5E0"/>
<path d="M364.385 107.456C377.698 107.456 386.404 112.093 390.442 114.905L388.318 117.029H335.665C335.665 117.029 345.238 107.456 364.385 107.456Z" fill="#325078"/>
<path d="M382.335 120.619C380.352 120.619 378.745 119.012 378.745 117.029C378.745 115.046 380.352 113.439 382.335 113.439C384.318 113.439 385.925 115.046 385.925 117.029C385.925 119.012 384.318 120.619 382.335 120.619Z" fill="#FFF5FF"/>
<path d="M382.357 114.637L384.747 117.028L382.357 119.418L379.967 117.028L382.357 114.637Z" fill="#002D96"/>
<path d="M335.665 117.029L322.502 107.456V126.602L335.665 117.029Z" fill="#002D96"/>
<path d="M364.385 117.029H358.402V120.619L364.385 117.029Z" fill="#002D96"/>
<path d="M183.688 182.247L173.516 186.705C172.978 186.915 172.35 187.034 171.721 187.034C169.089 187.034 166.935 184.88 166.935 182.247C166.935 179.615 169.089 177.461 171.721 177.461C172.35 177.461 172.948 177.58 173.516 177.79L183.688 182.247Z" fill="#B9C5E0"/>
<path d="M171.721 184.641C173.043 184.641 174.115 183.569 174.115 182.247C174.115 180.926 173.043 179.854 171.721 179.854C170.4 179.854 169.328 180.926 169.328 182.247C169.328 183.569 170.4 184.641 171.721 184.641Z" fill="#FFF5FF"/>
<path d="M171.721 183.444C172.382 183.444 172.918 182.908 172.918 182.247C172.918 181.587 172.382 181.051 171.721 181.051C171.06 181.051 170.525 181.587 170.525 182.247C170.525 182.908 171.06 183.444 171.721 183.444Z" fill="#002D96"/>
<path d="M183.688 182.247L189.672 178.657V185.837L183.688 182.247Z" fill="#002D96"/>
<path d="M143.002 27.2792C140.369 27.2792 138.215 29.4332 138.215 32.0658C138.215 34.6985 140.369 36.8525 143.002 36.8525V27.2792Z" fill="#002D96"/>
<path d="M143.002 46.4259C140.369 46.4259 138.215 48.5799 138.215 51.2126C138.215 53.8452 140.369 55.9992 143.002 55.9992V46.4259Z" fill="#002D96"/>
<path d="M138.215 32.0658V51.2125C148.776 51.2125 157.362 46.9344 157.362 41.6391C157.362 36.3439 148.776 32.0658 138.215 32.0658Z" fill="#B9C5E0"/>
<path d="M138.215 32.0658V51.2125C127.654 51.2125 119.068 46.9344 119.068 41.6391C119.068 36.3439 127.654 32.0658 138.215 32.0658Z" fill="#325078"/>
<path d="M126.248 45.2292C128.231 45.2292 129.838 43.6219 129.838 41.6392C129.838 39.6565 128.231 38.0492 126.248 38.0492C124.266 38.0492 122.658 39.6565 122.658 41.6392C122.658 43.6219 124.266 45.2292 126.248 45.2292Z" fill="#FFF5FF"/>
<path d="M128.642 40.4425H123.855V42.8358H128.642V40.4425Z" fill="#002D96"/>
<path d="M166.935 48.8192C161.64 48.8192 157.362 45.6181 157.362 41.6392C157.362 37.6603 161.64 34.4592 166.935 34.4592V48.8192Z" fill="#325078"/>
<path d="M311.732 196.608H297.372C297.372 188.68 303.804 182.248 311.732 182.248V196.608Z" fill="#325078"/>
<path d="M311.731 182.248H326.091C326.091 190.175 319.659 196.608 311.731 196.608V182.248Z" fill="#B9C5E0"/>
<path d="M333.272 175.068C337.251 179.046 337.251 185.449 333.272 189.427L326.092 182.247L333.272 175.068Z" fill="#B9C5E0"/>
<path d="M330.878 177.461C333.511 180.094 333.511 184.402 330.878 187.034L326.092 182.248L330.878 177.461Z" fill="#002D96"/>
<path d="M225.272 111.046C241.134 111.046 253.992 98.1874 253.992 82.3258C253.992 66.4642 241.134 53.6058 225.272 53.6058C209.411 53.6058 196.552 66.4642 196.552 82.3258C196.552 98.1874 209.411 111.046 225.272 111.046Z" fill="#002D96"/>
<path d="M196.552 82.3258C196.552 82.3258 206.126 67.9658 225.272 67.9658C244.419 67.9658 253.992 82.3258 253.992 82.3258C253.992 82.3258 244.419 96.6858 225.272 96.6858C206.126 96.6858 196.552 82.3258 196.552 82.3258Z" fill="#FD6871"/>
<path d="M261.172 75.1458C265.151 79.1247 265.151 85.5269 261.172 89.5058L253.992 82.3258L261.172 75.1458Z" fill="#002D96"/>
<path d="M258.779 77.5391C261.412 80.1717 261.412 84.4798 258.779 87.1124L253.992 82.3257L258.779 77.5391Z" fill="#FD6871"/>
<path d="M207.322 85.9158C209.305 85.9158 210.912 84.3085 210.912 82.3258C210.912 80.3431 209.305 78.7358 207.322 78.7358C205.34 78.7358 203.732 80.3431 203.732 82.3258C203.732 84.3085 205.34 85.9158 207.322 85.9158Z" fill="#FFF5FF"/>
<path d="M207.322 84.7192C208.644 84.7192 209.716 83.6477 209.716 82.3259C209.716 81.004 208.644 79.9325 207.322 79.9325C206 79.9325 204.929 81.004 204.929 82.3259C204.929 83.6477 206 84.7192 207.322 84.7192Z" fill="#002D96"/>
<path d="M222.101 77.5392C224.734 80.1719 224.734 84.4799 222.101 87.1126L217.314 82.3259L222.101 77.5392Z" fill="#002D96"/>
<path d="M230.059 70.3591C231.375 71.6755 231.375 73.8294 230.059 75.1458L227.666 72.7525L230.059 70.3591Z" fill="#FFF5FF"/>
<path d="M230.059 75.1458C231.375 76.4621 231.375 78.6161 230.059 79.9325L227.666 77.5391L230.059 75.1458Z" fill="#FFF5FF"/>
<path d="M230.059 79.9325C231.375 81.2488 231.375 83.4029 230.059 84.7192L227.666 82.3259L230.059 79.9325Z" fill="#FFF5FF"/>
<path d="M230.059 84.7192C231.375 86.0356 231.375 88.1896 230.059 89.5059L227.666 87.1126L230.059 84.7192Z" fill="#FFF5FF"/>
<path d="M230.059 89.5057C231.375 90.8221 231.375 92.976 230.059 94.2923L227.666 91.899L230.059 89.5057Z" fill="#FFF5FF"/>
<path d="M236.042 75.1458C237.359 76.4621 237.359 78.6161 236.042 79.9325L233.649 77.5391L236.042 75.1458Z" fill="#FFF5FF"/>
<path d="M236.042 79.9325C237.359 81.2488 237.359 83.4029 236.042 84.7192L233.649 82.3259L236.042 79.9325Z" fill="#FFF5FF"/>
<path d="M242.026 79.9325C243.342 81.2488 243.342 83.4029 242.026 84.7192L239.632 82.3259L242.026 79.9325Z" fill="#FFF5FF"/>
<path d="M236.042 84.7192C237.359 86.0356 237.359 88.1896 236.042 89.5059L233.649 87.1126L236.042 84.7192Z" fill="#FFF5FF"/>
<path d="M400.285 64.3757C400.285 74.9363 408.871 83.5224 419.432 83.5224C416.799 83.5224 414.645 81.3684 414.645 78.7358V64.3757V63.1791H400.285V64.3757Z" fill="#002D96"/>
<path d="M402.678 64.3757V78.7358C402.678 81.3684 404.832 83.5224 407.465 83.5224C396.904 83.5224 388.318 74.9363 388.318 64.3757V63.1791H402.678V64.3757Z" fill="#B9C5E0"/>
<path d="M522.345 112.242C522.345 54.0845 475.196 6.93579 417.038 6.93579H378.745C352.299 6.93579 330.878 28.3561 330.878 54.8025H323.698C318.403 54.8025 314.125 59.0805 314.125 64.3758H388.318H469.692C496.138 64.3758 517.558 85.7961 517.558 112.242H522.345Z" fill="#B9C5E0"/>
<path d="M346.435 53.6058C348.418 53.6058 350.025 51.9985 350.025 50.0158C350.025 48.0331 348.418 46.4258 346.435 46.4258C344.452 46.4258 342.845 48.0331 342.845 50.0158C342.845 51.9985 344.452 53.6058 346.435 53.6058Z" fill="#FFF5FF"/>
<path d="M346.435 52.4091C347.757 52.4091 348.828 51.3376 348.828 50.0158C348.828 48.694 347.757 47.6224 346.435 47.6224C345.113 47.6224 344.042 48.694 344.042 50.0158C344.042 51.3376 345.113 52.4091 346.435 52.4091Z" fill="#002D96"/>
<path d="M388.318 12.9191C388.318 2.35855 396.904 -6.22754 407.465 -6.22754H412.252C409.619 -6.22754 407.465 -4.07354 407.465 -1.44087V12.9191H388.318Z" fill="#B9C5E0"/>
<path d="M49.1572 145.136V161.525H53.2545C62.2944 161.525 69.644 154.176 69.644 145.136H49.1572Z" fill="#002D96"/>
<path d="M-8.20746 173.817C-8.20746 146.672 14.8403 128.746 41.9854 128.746H147.493C138.709 143.318 122.729 149.233 104.47 149.233H16.3768C2.80424 149.233 -8.20746 160.245 -8.20746 173.817Z" fill="#B9C5E0"/>
<path d="M-8.20682 173.818C5.36574 173.818 16.3774 184.83 16.3774 198.403H-4.10945C-8.64217 198.403 -12.3042 194.74 -12.3042 190.208C-12.3042 194.74 -15.9662 198.403 -20.499 198.403H-40.9858C-40.9858 184.83 -29.9741 173.818 -16.4016 173.818H-8.20682Z" fill="#002D96"/>
<path d="M90.1294 86.7486C90.1294 77.7088 82.7797 70.3591 73.7399 70.3591H69.6425V86.7486" fill="#002D96"/>
<path d="M147.493 124.649C147.493 102.011 129.157 83.6755 106.519 83.6755H73.7401C23.957 83.6755 -16.4022 124.035 -16.4022 173.818H-8.20747C-8.20747 155.713 6.46626 141.039 24.5716 141.039H65.5453C67.7989 141.039 69.6427 142.883 69.6427 145.136V161.526H73.7401C82.7799 161.526 90.1296 154.176 90.1296 145.136C90.1296 136.096 97.4793 128.747 106.519 128.747H147.493V124.649Z" fill="#002D96"/>
<path d="M127.007 120.552C130.976 120.552 134.177 117.351 134.177 113.382C134.177 109.413 130.976 106.212 127.007 106.212H119.836C115.867 106.212 112.666 109.413 112.666 113.382C112.666 117.351 115.867 120.552 119.836 120.552H127.007Z" fill="#B9C5E0"/>
<path d="M31.7116 41.6391L24.5316 32.0658H43.6782V51.2125H24.5316L31.7116 41.6391Z" fill="#B9C5E0"/>
<path d="M48.465 32.0658C49.0633 32.0658 49.6916 32.3051 50.1702 32.7539L58.0383 41.6391L50.1702 50.5244C49.6916 50.9731 49.0633 51.2125 48.465 51.2125H43.6783V32.0658H48.465Z" fill="#325078"/>
<path d="M31.7117 41.6391L24.5317 36.8524V46.4258L31.7117 41.6391Z" fill="#002D96"/>
<path d="M50.8584 44.0325C49.5366 44.0325 48.465 42.961 48.465 41.6392C48.465 40.3174 49.5366 39.2458 50.8584 39.2458C52.1802 39.2458 53.2517 40.3174 53.2517 41.6392C53.2517 42.961 52.1802 44.0325 50.8584 44.0325Z" fill="#FFF5FF"/>
<path d="M50.8585 42.8358C50.1976 42.8358 49.6618 42.3001 49.6618 41.6392C49.6618 40.9783 50.1976 40.4425 50.8585 40.4425C51.5194 40.4425 52.0552 40.9783 52.0552 41.6392C52.0552 42.3001 51.5194 42.8358 50.8585 42.8358Z" fill="#002D96"/>
<path d="M43.6782 41.6392L38.8916 39.2458V44.0325L43.6782 41.6392Z" fill="#002D96"/>
<path d="M98.4258 0.952549C105.696 0.952549 111.589 -2.52993 111.589 -6.82579C111.589 -11.1216 105.696 -14.6041 98.4258 -14.6041C91.1559 -14.6041 85.2625 -11.1216 85.2625 -6.82579C85.2625 -2.52993 91.1559 0.952549 98.4258 0.952549Z" fill="#002D96"/>
<path d="M195.057 139.766C193.74 139.766 192.663 140.843 192.663 142.159C192.663 143.476 193.74 144.553 195.057 144.553C196.373 144.553 197.45 143.476 197.45 142.159C197.45 140.843 196.373 139.766 195.057 139.766ZM195.057 143.356C194.399 143.356 193.86 142.817 193.86 142.159C193.86 141.501 194.399 140.963 195.057 140.963C195.715 140.963 196.253 141.501 196.253 142.159C196.253 142.817 195.715 143.356 195.057 143.356Z" fill="#002D96"/>
<path d="M285.106 113.439C283.789 113.439 282.712 114.516 282.712 115.832C282.712 117.149 283.789 118.226 285.106 118.226C286.422 118.226 287.499 117.149 287.499 115.832C287.499 114.516 286.422 113.439 285.106 113.439ZM285.106 117.029C284.448 117.029 283.909 116.491 283.909 115.832C283.909 115.174 284.448 114.636 285.106 114.636C285.764 114.636 286.302 115.174 286.302 115.832C286.302 116.491 285.764 117.029 285.106 117.029Z" fill="#002D96"/>
<path d="M192.065 46.4258C190.749 46.4258 189.672 47.5028 189.672 48.8191C189.672 50.1355 190.749 51.2125 192.065 51.2125C193.381 51.2125 194.458 50.1355 194.458 48.8191C194.458 47.5028 193.381 46.4258 192.065 46.4258ZM192.065 50.0158C191.407 50.0158 190.868 49.4773 190.868 48.8191C190.868 48.161 191.407 47.6225 192.065 47.6225C192.723 47.6225 193.262 48.161 193.262 48.8191C193.262 49.4773 192.723 50.0158 192.065 50.0158Z" fill="#002D96"/>
<path d="M174.115 73.9491C172.799 73.9491 171.722 75.0261 171.722 76.3424C171.722 77.6588 172.799 78.7358 174.115 78.7358C175.431 78.7358 176.508 77.6588 176.508 76.3424C176.508 75.0261 175.431 73.9491 174.115 73.9491ZM174.115 77.5391C173.457 77.5391 172.918 77.0006 172.918 76.3424C172.918 75.6843 173.457 75.1458 174.115 75.1458C174.773 75.1458 175.312 75.6843 175.312 76.3424C175.312 77.0006 174.773 77.5391 174.115 77.5391Z" fill="#002D96"/>
<path d="M90.6475 36.8525C89.3312 36.8525 88.2542 37.9295 88.2542 39.2459C88.2542 40.5622 89.3312 41.6392 90.6475 41.6392C91.9638 41.6392 93.0408 40.5622 93.0408 39.2459C93.0408 37.9295 91.9638 36.8525 90.6475 36.8525ZM90.6475 40.4426C89.9893 40.4426 89.4508 39.9041 89.4508 39.2459C89.4508 38.5877 89.9893 38.0492 90.6475 38.0492C91.3057 38.0492 91.8442 38.5877 91.8442 39.2459C91.8442 39.9041 91.3057 40.4426 90.6475 40.4426Z" fill="#002D96"/>
<path d="M316.818 6.93579C315.501 6.93579 314.424 8.01279 314.424 9.32912C314.424 10.6454 315.501 11.7224 316.818 11.7224C318.134 11.7224 319.211 10.6454 319.211 9.32912C319.211 8.01279 318.134 6.93579 316.818 6.93579ZM316.818 10.5258C316.159 10.5258 315.621 9.98728 315.621 9.32912C315.621 8.67095 316.159 8.13245 316.818 8.13245C317.476 8.13245 318.014 8.67095 318.014 9.32912C318.014 9.98728 317.476 10.5258 316.818 10.5258Z" fill="#002D96"/>
<path d="M309.637 85.9159C308.321 85.9159 307.244 86.9929 307.244 88.3092C307.244 89.6256 308.321 90.7026 309.637 90.7026C310.954 90.7026 312.031 89.6256 312.031 88.3092C312.031 86.9929 310.954 85.9159 309.637 85.9159ZM309.637 89.5059C308.979 89.5059 308.441 88.9674 308.441 88.3092C308.441 87.6511 308.979 87.1126 309.637 87.1126C310.296 87.1126 310.834 87.6511 310.834 88.3092C310.834 88.9674 310.296 89.5059 309.637 89.5059Z" fill="#002D96"/>
<path d="M381.138 156.519C379.822 156.519 378.745 157.596 378.745 158.912C378.745 160.229 379.822 161.306 381.138 161.306C382.455 161.306 383.532 160.229 383.532 158.912C383.532 157.596 382.455 156.519 381.138 156.519ZM381.138 160.109C380.48 160.109 379.942 159.571 379.942 158.912C379.942 158.254 380.48 157.716 381.138 157.716C381.796 157.716 382.335 158.254 382.335 158.912C382.335 159.571 381.796 160.109 381.138 160.109Z" fill="#002D96"/>
<path d="M143.002 171.478C141.685 171.478 140.608 172.555 140.608 173.871C140.608 175.187 141.685 176.264 143.002 176.264C144.318 176.264 145.395 175.187 145.395 173.871C145.395 172.555 144.318 171.478 143.002 171.478ZM143.002 175.068C142.344 175.068 141.805 174.529 141.805 173.871C141.805 173.213 142.344 172.674 143.002 172.674C143.66 172.674 144.198 173.213 144.198 173.871C144.198 174.529 143.66 175.068 143.002 175.068Z" fill="#002D96"/>
</g>
</g>
<defs>
<clipPath id="clip0">
<rect width="430.8" height="269.25" fill="white" transform="translate(0 -52)"/>
</clipPath>
</defs>
</svg>
