<svg width="375" height="161" viewBox="0 0 375 161" fill="none" xmlns="http://www.w3.org/2000/svg">
<mask id="mask0" mask-type="alpha" maskUnits="userSpaceOnUse" x="0" y="0" width="375" height="161">
<rect width="375" height="161" fill="#2173FF"/>
</mask>
<g mask="url(#mask0)">
<g clip-path="url(#clip0)">
<path d="M375 -32H0V202.688H375V-32Z" fill="#001932"/>
<path d="M248.177 9.98312V26.6721L244.01 30.8443V5.81088L248.177 9.98312Z" fill="#B9C5E0"/>
<path d="M231.51 -6.70584L239.844 1.63863V35.0165L231.51 43.361V-6.70584Z" fill="#B9C5E0"/>
<path d="M244.01 5.81088V30.8443L239.844 35.0165V1.63864L244.01 5.81088Z" fill="#325078"/>
<path d="M256.51 18.3276L248.177 26.6721V9.98309L256.51 18.3276Z" fill="#325078"/>
<path d="M248.177 21.4567C246.451 21.4567 245.052 20.0558 245.052 18.3276C245.052 16.5994 246.451 15.1984 248.177 15.1984C249.903 15.1984 251.302 16.5994 251.302 18.3276C251.302 20.0558 249.903 21.4567 248.177 21.4567Z" fill="#FFF5FF"/>
<path d="M248.177 20.4137C247.027 20.4137 246.094 19.4797 246.094 18.3276C246.094 17.1754 247.027 16.2415 248.177 16.2415C249.328 16.2415 250.26 17.1754 250.26 18.3276C250.26 19.4797 249.328 20.4137 248.177 20.4137Z" fill="#002D96"/>
<path d="M223.177 9.98309V26.6721L231.51 18.3276L223.177 9.98309Z" fill="#325078"/>
<path d="M226.823 143.495H218.49V160.184H226.823V143.495Z" fill="#325078"/>
<path d="M208.073 160.184C203.463 160.184 199.74 156.455 199.74 151.839C199.74 147.224 203.463 143.495 208.073 143.495H218.489C223.099 143.495 226.823 147.224 226.823 151.839C226.823 156.455 223.099 160.184 218.489 160.184H208.073Z" fill="#B9C5E0"/>
<path d="M205.99 153.925C207.14 153.925 208.073 152.991 208.073 151.839C208.073 150.687 207.14 149.753 205.99 149.753C204.839 149.753 203.906 150.687 203.906 151.839C203.906 152.991 204.839 153.925 205.99 153.925Z" fill="#FFF5FF"/>
<path d="M205.99 152.882C206.565 152.882 207.031 152.415 207.031 151.839C207.031 151.263 206.565 150.796 205.99 150.796C205.414 150.796 204.948 151.263 204.948 151.839C204.948 152.415 205.414 152.882 205.99 152.882Z" fill="#002D96"/>
<path d="M233.073 156.011C234.219 156.011 235.156 155.073 235.156 153.925C235.156 152.778 234.219 151.839 233.073 151.839C234.219 151.839 235.156 150.9 235.156 149.753C235.156 148.606 234.219 147.667 233.073 147.667L226.823 151.839L233.073 156.011Z" fill="#002D96"/>
<path d="M212.24 151.839C212.24 154.134 214.114 156.011 216.406 156.011C218.698 156.011 220.573 154.134 220.573 151.839H212.24Z" fill="#002D96"/>
<path d="M338.021 115.332L339.87 117.183C336.354 119.635 328.776 123.677 317.187 123.677C300.521 123.677 292.187 115.332 292.187 115.332H338.021Z" fill="#B9C5E0"/>
<path d="M317.187 106.988C328.776 106.988 336.354 111.029 339.87 113.481L338.021 115.332H292.187C292.187 115.332 300.521 106.988 317.187 106.988Z" fill="#325078"/>
<path d="M332.812 118.461C331.087 118.461 329.688 117.06 329.688 115.332C329.688 113.604 331.087 112.203 332.812 112.203C334.538 112.203 335.938 113.604 335.938 115.332C335.938 117.06 334.538 118.461 332.812 118.461Z" fill="#FFF5FF"/>
<path d="M332.832 113.247L334.912 115.331L332.832 117.414L330.751 115.331L332.832 113.247Z" fill="#002D96"/>
<path d="M292.188 115.332L280.729 106.988V123.677L292.188 115.332Z" fill="#002D96"/>
<path d="M317.187 115.332H311.979V118.461L317.187 115.332Z" fill="#002D96"/>
<path d="M124.479 37.1027C122.188 37.1027 120.312 38.9802 120.312 41.2749C120.312 43.5696 122.188 45.4471 124.479 45.4471V37.1027Z" fill="#002D96"/>
<path d="M124.479 53.7916C122.188 53.7916 120.312 55.6691 120.312 57.9638C120.312 60.2586 122.188 62.1361 124.479 62.1361V53.7916Z" fill="#002D96"/>
<path d="M120.312 41.2749V57.9638C129.505 57.9638 136.979 54.2349 136.979 49.6194C136.979 45.0038 129.505 41.2749 120.312 41.2749Z" fill="#B9C5E0"/>
<path d="M120.312 41.2749V57.9638C111.12 57.9638 103.646 54.2349 103.646 49.6194C103.646 45.0038 111.12 41.2749 120.312 41.2749Z" fill="#325078"/>
<path d="M109.896 52.7485C111.622 52.7485 113.021 51.3476 113.021 49.6194C113.021 47.8912 111.622 46.4902 109.896 46.4902C108.17 46.4902 106.771 47.8912 106.771 49.6194C106.771 51.3476 108.17 52.7485 109.896 52.7485Z" fill="#FFF5FF"/>
<path d="M111.979 48.5763H107.812V50.6624H111.979V48.5763Z" fill="#002D96"/>
<path d="M145.312 55.8777C140.703 55.8777 136.979 53.0875 136.979 49.6194C136.979 46.1512 140.703 43.361 145.312 43.361V55.8777Z" fill="#325078"/>
<path d="M196.094 110.117C209.901 110.117 221.094 98.9089 221.094 85.0833C221.094 71.2578 209.901 60.0499 196.094 60.0499C182.287 60.0499 171.094 71.2578 171.094 85.0833C171.094 98.9089 182.287 110.117 196.094 110.117Z" fill="#002D96"/>
<path d="M171.094 85.0833C171.094 85.0833 179.427 72.5667 196.094 72.5667C212.76 72.5667 221.094 85.0833 221.094 85.0833C221.094 85.0833 212.76 97.6 196.094 97.6C179.427 97.6 171.094 85.0833 171.094 85.0833Z" fill="#FD6871"/>
<path d="M227.344 78.825C230.807 82.2931 230.807 87.8735 227.344 91.3417L221.094 85.0833L227.344 78.825Z" fill="#002D96"/>
<path d="M225.26 80.9111C227.552 83.2058 227.552 86.9608 225.26 89.2556L221.094 85.0833L225.26 80.9111Z" fill="#FD6871"/>
<path d="M180.469 88.2125C182.195 88.2125 183.594 86.8115 183.594 85.0833C183.594 83.3551 182.195 81.9542 180.469 81.9542C178.743 81.9542 177.344 83.3551 177.344 85.0833C177.344 86.8115 178.743 88.2125 180.469 88.2125Z" fill="#FFF5FF"/>
<path d="M180.469 87.1695C181.619 87.1695 182.552 86.2355 182.552 85.0833C182.552 83.9312 181.619 82.9972 180.469 82.9972C179.318 82.9972 178.385 83.9312 178.385 85.0833C178.385 86.2355 179.318 87.1695 180.469 87.1695Z" fill="#002D96"/>
<path d="M193.333 80.9111C195.625 83.2058 195.625 86.9608 193.333 89.2556L189.167 85.0833L193.333 80.9111Z" fill="#002D96"/>
<path d="M200.26 74.6528C201.406 75.8001 201.406 77.6776 200.26 78.825L198.177 76.7389L200.26 74.6528Z" fill="#FFF5FF"/>
<path d="M200.26 78.825C201.406 79.9723 201.406 81.8499 200.26 82.9972L198.177 80.9111L200.26 78.825Z" fill="#FFF5FF"/>
<path d="M200.26 82.9972C201.406 84.1446 201.406 86.0221 200.26 87.1695L198.177 85.0833L200.26 82.9972Z" fill="#FFF5FF"/>
<path d="M200.26 87.1695C201.406 88.3168 201.406 90.1943 200.26 91.3417L198.177 89.2556L200.26 87.1695Z" fill="#FFF5FF"/>
<path d="M200.26 91.3417C201.406 92.489 201.406 94.3665 200.26 95.5139L198.177 93.4278L200.26 91.3417Z" fill="#FFF5FF"/>
<path d="M205.469 78.825C206.614 79.9723 206.614 81.8499 205.469 82.9972L203.385 80.9111L205.469 78.825Z" fill="#FFF5FF"/>
<path d="M205.469 82.9972C206.614 84.1446 206.614 86.0221 205.469 87.1695L203.385 85.0833L205.469 82.9972Z" fill="#FFF5FF"/>
<path d="M210.677 82.9972C211.823 84.1446 211.823 86.0221 210.677 87.1695L208.594 85.0833L210.677 82.9972Z" fill="#FFF5FF"/>
<path d="M205.469 87.1695C206.614 88.3168 206.614 90.1943 205.469 91.3417L203.385 89.2556L205.469 87.1695Z" fill="#FFF5FF"/>
<path d="M348.438 69.4375C348.438 78.6425 355.911 86.1264 365.104 86.1264C362.812 86.1264 360.937 84.2489 360.937 81.9542V69.4375V68.3944H348.438V69.4375Z" fill="#002D96"/>
<path d="M350.521 69.4375V81.9542C350.521 84.2489 352.396 86.1264 354.687 86.1264C345.495 86.1264 338.021 78.6425 338.021 69.4375V68.3944H350.521V69.4375Z" fill="#B9C5E0"/>
<path d="M454.687 111.16C454.687 60.4672 413.646 19.3706 363.021 19.3706H329.687C306.667 19.3706 288.021 38.0414 288.021 61.093H281.771C277.161 61.093 273.438 64.8219 273.438 69.4375H338.021H408.854C431.875 69.4375 450.521 88.1082 450.521 111.16H454.687Z" fill="#B9C5E0"/>
<path d="M301.563 60.0499C303.288 60.0499 304.688 58.6489 304.688 56.9207C304.688 55.1925 303.288 53.7916 301.563 53.7916C299.837 53.7916 298.438 55.1925 298.438 56.9207C298.438 58.6489 299.837 60.0499 301.563 60.0499Z" fill="#FFF5FF"/>
<path d="M301.563 59.0069C302.713 59.0069 303.646 58.0729 303.646 56.9208C303.646 55.7686 302.713 54.8347 301.563 54.8347C300.412 54.8347 299.479 55.7686 299.479 56.9208C299.479 58.0729 300.412 59.0069 301.563 59.0069Z" fill="#002D96"/>
<path d="M338.021 24.5859C338.021 15.3809 345.495 7.897 354.687 7.897H358.854C356.562 7.897 354.687 9.77451 354.687 12.0692V24.5859H338.021Z" fill="#B9C5E0"/>
<path d="M42.79 139.831V154.117H46.3566C54.2256 154.117 60.6233 147.71 60.6233 139.831H42.79Z" fill="#002D96"/>
<path d="M-7.14433 164.831C-7.14433 141.17 12.9181 125.545 36.5472 125.545H128.389C120.743 138.246 106.833 143.402 90.9388 143.402H14.2556C2.44106 143.402 -7.14433 153 -7.14433 164.831Z" fill="#B9C5E0"/>
<path d="M78.4553 88.9385C78.4553 81.059 72.0576 74.6528 64.1887 74.6528H60.622V88.9385" fill="#002D96"/>
<path d="M128.389 121.974C128.389 102.242 112.428 86.2598 92.7221 86.2598H64.1888C20.8539 86.2598 -14.2776 121.438 -14.2776 164.831H-7.14433C-7.14433 149.05 5.62876 136.26 21.3889 136.26H57.0555C59.0172 136.26 60.6222 137.867 60.6222 139.831V154.117H64.1888C72.0578 154.117 78.4555 147.711 78.4555 139.831C78.4555 131.952 84.8532 125.545 92.7221 125.545H128.389V121.974Z" fill="#002D96"/>
<path d="M110.556 118.403C114.011 118.403 116.798 115.613 116.798 112.153C116.798 108.693 114.011 105.903 110.556 105.903H104.314C100.859 105.903 98.0726 108.693 98.0726 112.153C98.0726 115.613 100.859 118.403 104.314 118.403H110.556Z" fill="#B9C5E0"/>
<path d="M174.479 5.81087L183.333 9.69626C183.802 9.87879 184.349 9.9831 184.896 9.9831C187.187 9.9831 189.062 8.1056 189.062 5.81087C189.062 3.51614 187.187 1.63864 184.896 1.63864C184.349 1.63864 183.828 1.74295 183.333 1.92548L174.479 5.81087Z" fill="#325078"/>
<path d="M184.896 7.897C183.745 7.897 182.813 6.96302 182.813 5.81088C182.813 4.65875 183.745 3.72476 184.896 3.72476C186.047 3.72476 186.979 4.65875 186.979 5.81088C186.979 6.96302 186.047 7.897 184.896 7.897Z" fill="#FFF5FF"/>
<path d="M184.896 6.85393C184.321 6.85393 183.854 6.38694 183.854 5.81088C183.854 5.23481 184.321 4.76782 184.896 4.76782C185.471 4.76782 185.938 5.23481 185.938 5.81088C185.938 6.38694 185.471 6.85393 184.896 6.85393Z" fill="#002D96"/>
<path d="M174.479 5.81088L169.271 2.6817V8.94006L174.479 5.81088Z" fill="#002D96"/>
<path d="M27.6041 49.6193L21.3541 41.2749H38.0208V57.9638H21.3541L27.6041 49.6193Z" fill="#B9C5E0"/>
<path d="M42.1874 41.2749C42.7082 41.2749 43.2551 41.4835 43.6718 41.8746L50.5208 49.6193L43.6718 57.3641C43.2551 57.7552 42.7082 57.9638 42.1874 57.9638H38.0207V41.2749H42.1874Z" fill="#325078"/>
<path d="M27.604 49.6193L21.354 45.4471V53.7916L27.604 49.6193Z" fill="#002D96"/>
<path d="M44.2707 51.7055C43.1201 51.7055 42.1873 50.7715 42.1873 49.6194C42.1873 48.4672 43.1201 47.5332 44.2707 47.5332C45.4213 47.5332 46.354 48.4672 46.354 49.6194C46.354 50.7715 45.4213 51.7055 44.2707 51.7055Z" fill="#FFF5FF"/>
<path d="M44.2706 50.6624C43.6953 50.6624 43.2289 50.1954 43.2289 49.6194C43.2289 49.0433 43.6953 48.5763 44.2706 48.5763C44.8459 48.5763 45.3123 49.0433 45.3123 49.6194C45.3123 50.1954 44.8459 50.6624 44.2706 50.6624Z" fill="#002D96"/>
<path d="M38.0208 49.6194L33.8541 47.5332V51.7055L38.0208 49.6194Z" fill="#002D96"/>
<path d="M85.6771 14.1553C92.0054 14.1553 97.1354 11.1199 97.1354 7.37546C97.1354 3.63104 92.0054 0.595581 85.6771 0.595581C79.3488 0.595581 74.2188 3.63104 74.2188 7.37546C74.2188 11.1199 79.3488 14.1553 85.6771 14.1553Z" fill="#002D96"/>
<path d="M103.385 -0.447457C103.385 -0.447457 95.0521 -8.79193 78.3854 -8.79193C76.9271 -8.79193 75.5469 -8.7137 74.2188 -8.6094V7.71448C75.5469 7.81879 76.9271 7.89702 78.3854 7.89702C95.0521 7.89702 103.385 -0.447457 103.385 -0.447457Z" fill="#B9C5E0"/>
<path d="M53.3855 -0.450399C53.3855 -0.450399 60.3386 6.48594 74.2188 7.71154V-8.61234C60.3386 -7.38674 53.3855 -0.450399 53.3855 -0.450399Z" fill="#325078"/>
<path d="M74.2188 -0.447488L79.4271 -3.57666V2.68168L74.2188 -0.447488Z" fill="#002D96"/>
<path d="M63.8022 2.68168C65.5281 2.68168 66.9272 1.28071 66.9272 -0.447488C66.9272 -2.17568 65.5281 -3.57666 63.8022 -3.57666C62.0764 -3.57666 60.6772 -2.17568 60.6772 -0.447488C60.6772 1.28071 62.0764 2.68168 63.8022 2.68168Z" fill="#FFF5FF"/>
<path d="M63.8023 1.63864C64.9529 1.63864 65.8857 0.704652 65.8857 -0.44748C65.8857 -1.59961 64.9529 -2.5336 63.8023 -2.5336C62.6517 -2.5336 61.719 -1.59961 61.719 -0.44748C61.719 0.704652 62.6517 1.63864 63.8023 1.63864Z" fill="#002D96"/>
<path d="M103.385 3.72478C103.385 6.01951 105.26 7.89702 107.552 7.89702H120.052L111.719 -0.447457L120.052 -8.79193H107.552C105.26 -8.79193 103.385 -6.91442 103.385 -4.61969V3.72478Z" fill="#325078"/>
<path d="M169.792 135.15C168.646 135.15 167.708 136.089 167.708 137.236C167.708 138.384 168.646 139.322 169.792 139.322C170.937 139.322 171.875 138.384 171.875 137.236C171.875 136.089 170.937 135.15 169.792 135.15ZM169.792 138.279C169.219 138.279 168.75 137.81 168.75 137.236C168.75 136.663 169.219 136.193 169.792 136.193C170.365 136.193 170.833 136.663 170.833 137.236C170.833 137.81 170.365 138.279 169.792 138.279Z" fill="#002D96"/>
<path d="M248.177 112.203C247.031 112.203 246.094 113.142 246.094 114.289C246.094 115.436 247.031 116.375 248.177 116.375C249.323 116.375 250.26 115.436 250.26 114.289C250.26 113.142 249.323 112.203 248.177 112.203ZM248.177 115.332C247.604 115.332 247.135 114.863 247.135 114.289C247.135 113.715 247.604 113.246 248.177 113.246C248.75 113.246 249.219 113.715 249.219 114.289C249.219 114.863 248.75 115.332 248.177 115.332Z" fill="#002D96"/>
<path d="M167.188 53.7916C166.042 53.7916 165.104 54.7303 165.104 55.8777C165.104 57.0251 166.042 57.9638 167.188 57.9638C168.333 57.9638 169.271 57.0251 169.271 55.8777C169.271 54.7303 168.333 53.7916 167.188 53.7916ZM167.188 56.9208C166.615 56.9208 166.146 56.4514 166.146 55.8777C166.146 55.304 166.615 54.8346 167.188 54.8346C167.76 54.8346 168.229 55.304 168.229 55.8777C168.229 56.4514 167.76 56.9208 167.188 56.9208Z" fill="#002D96"/>
<path d="M151.563 77.7819C150.417 77.7819 149.479 78.7207 149.479 79.868C149.479 81.0154 150.417 81.9541 151.563 81.9541C152.708 81.9541 153.646 81.0154 153.646 79.868C153.646 78.7207 152.708 77.7819 151.563 77.7819ZM151.563 80.9111C150.99 80.9111 150.521 80.4417 150.521 79.868C150.521 79.2944 150.99 78.825 151.563 78.825C152.136 78.825 152.604 79.2944 152.604 79.868C152.604 80.4417 152.136 80.9111 151.563 80.9111Z" fill="#002D96"/>
<path d="M78.9063 45.4471C77.7605 45.4471 76.823 46.3859 76.823 47.5332C76.823 48.6806 77.7605 49.6193 78.9063 49.6193C80.0522 49.6193 80.9896 48.6806 80.9896 47.5332C80.9896 46.3859 80.0522 45.4471 78.9063 45.4471ZM78.9063 48.5763C78.3334 48.5763 77.8647 48.1069 77.8647 47.5332C77.8647 46.9595 78.3334 46.4902 78.9063 46.4902C79.4792 46.4902 79.948 46.9595 79.948 47.5332C79.948 48.1069 79.4792 48.5763 78.9063 48.5763Z" fill="#002D96"/>
<path d="M139.063 -0.447479C137.917 -0.447479 136.979 0.491275 136.979 1.63864C136.979 2.78601 137.917 3.72476 139.063 3.72476C140.208 3.72476 141.146 2.78601 141.146 1.63864C141.146 0.491275 140.208 -0.447479 139.063 -0.447479ZM139.063 2.6817C138.49 2.6817 138.021 2.21232 138.021 1.63864C138.021 1.06496 138.49 0.595581 139.063 0.595581C139.635 0.595581 140.104 1.06496 140.104 1.63864C140.104 2.21232 139.635 2.6817 139.063 2.6817Z" fill="#002D96"/>
<path d="M265.365 -2.5336C264.219 -2.5336 263.281 -1.59485 263.281 -0.447479C263.281 0.699887 264.219 1.63864 265.365 1.63864C266.51 1.63864 267.448 0.699887 267.448 -0.447479C267.448 -1.59485 266.51 -2.5336 265.365 -2.5336ZM265.365 0.595581C264.792 0.595581 264.323 0.126204 264.323 -0.447479C264.323 -1.02116 264.792 -1.49054 265.365 -1.49054C265.937 -1.49054 266.406 -1.02116 266.406 -0.447479C266.406 0.126204 265.937 0.595581 265.365 0.595581Z" fill="#002D96"/>
<path d="M275.781 19.3706C274.635 19.3706 273.698 20.3094 273.698 21.4568C273.698 22.6041 274.635 23.5429 275.781 23.5429C276.927 23.5429 277.864 22.6041 277.864 21.4568C277.864 20.3094 276.927 19.3706 275.781 19.3706ZM275.781 22.4998C275.208 22.4998 274.739 22.0304 274.739 21.4568C274.739 20.8831 275.208 20.4137 275.781 20.4137C276.354 20.4137 276.823 20.8831 276.823 21.4568C276.823 22.0304 276.354 22.4998 275.781 22.4998Z" fill="#002D96"/>
<path d="M269.531 88.2125C268.385 88.2125 267.448 89.1513 267.448 90.2987C267.448 91.446 268.385 92.3848 269.531 92.3848C270.677 92.3848 271.614 91.446 271.614 90.2987C271.614 89.1513 270.677 88.2125 269.531 88.2125ZM269.531 91.3417C268.958 91.3417 268.489 90.8723 268.489 90.2987C268.489 89.725 268.958 89.2556 269.531 89.2556C270.104 89.2556 270.573 89.725 270.573 90.2987C270.573 90.8723 270.104 91.3417 269.531 91.3417Z" fill="#002D96"/>
<path d="M331.771 149.753C330.625 149.753 329.688 150.692 329.688 151.839C329.688 152.986 330.625 153.925 331.771 153.925C332.917 153.925 333.854 152.986 333.854 151.839C333.854 150.692 332.917 149.753 331.771 149.753ZM331.771 152.882C331.198 152.882 330.729 152.413 330.729 151.839C330.729 151.265 331.198 150.796 331.771 150.796C332.344 150.796 332.812 151.265 332.812 151.839C332.812 152.413 332.344 152.882 331.771 152.882Z" fill="#002D96"/>
</g>
</g>
<defs>
<clipPath id="clip0">
<rect width="375" height="234.688" fill="white" transform="translate(0 -32)"/>
</clipPath>
</defs>
</svg>
