<svg width="37" height="37" viewBox="0 0 37 37" fill="none" xmlns="http://www.w3.org/2000/svg">
<path d="M6.16634 17.7292V23.8959C6.16634 25.1755 7.19926 26.2084 8.47884 26.2084C9.75842 26.2084 10.7913 25.1755 10.7913 23.8959V17.7292C10.7913 16.4497 9.75842 15.4167 8.47884 15.4167C7.19926 15.4167 6.16634 16.4497 6.16634 17.7292ZM15.4163 17.7292V23.8959C15.4163 25.1755 16.4493 26.2084 17.7288 26.2084C19.0084 26.2084 20.0413 25.1755 20.0413 23.8959V17.7292C20.0413 16.4497 19.0084 15.4167 17.7288 15.4167C16.4493 15.4167 15.4163 16.4497 15.4163 17.7292ZM5.39551 33.9167H30.0622C31.3418 33.9167 32.3747 32.8838 32.3747 31.6042C32.3747 30.3247 31.3418 29.2917 30.0622 29.2917H5.39551C4.11592 29.2917 3.08301 30.3247 3.08301 31.6042C3.08301 32.8838 4.11592 33.9167 5.39551 33.9167ZM24.6663 17.7292V23.8959C24.6663 25.1755 25.6993 26.2084 26.9788 26.2084C28.2584 26.2084 29.2913 25.1755 29.2913 23.8959V17.7292C29.2913 16.4497 28.2584 15.4167 26.9788 15.4167C25.6993 15.4167 24.6663 16.4497 24.6663 17.7292ZM16.2951 2.29716L4.11592 8.71049C3.48384 9.03424 3.08301 9.69716 3.08301 10.4063C3.08301 11.4701 3.94634 12.3334 5.01009 12.3334H30.463C31.5113 12.3334 32.3747 11.4701 32.3747 10.4063C32.3747 9.69716 31.9738 9.03424 31.3418 8.71049L19.1626 2.29716C18.2684 1.81924 17.1893 1.81924 16.2951 2.29716V2.29716Z" fill="#2173FF"/>
</svg>
