<svg width="14" height="14" viewBox="0 0 14 14" fill="none" xmlns="http://www.w3.org/2000/svg">
<path d="M5.13333 2.12828C5.63535 1.35051 6.51212 0.841414 7.50202 0.841414C9.06464 0.841414 10.3303 2.10707 10.3303 3.6697C10.3303 4.6596 9.82121 5.53636 9.04343 6.03838L5.13333 2.12828ZM13.1586 10.1535C13.1444 9.37576 12.7131 8.66162 12.0202 8.30101C11.6384 8.10303 11.2212 7.91919 10.7687 7.76364L13.1586 10.1535ZM14 12.996L1.00404 0L0 0.99697L6.28586 7.28283C5.00606 7.44545 3.88889 7.84141 2.98384 8.30808C2.27677 8.66869 1.84545 9.39697 1.84545 10.1889V12.1545H11.1576L13.003 14L14 12.996Z" fill="#325078"/>
</svg>
