<svg width="16" height="16" viewBox="0 0 16 16" fill="none" xmlns="http://www.w3.org/2000/svg">
<path d="M13.3333 4V13.3333H4V14.6667H13.3333C14.0667 14.6667 14.6667 14.0667 14.6667 13.3333V4H13.3333Z" fill="#142137"/>
<path d="M10.815 1.33331H2.51868C1.86387 1.33331 1.3335 1.86368 1.3335 2.5185V10.8148C1.3335 11.4696 1.86387 12 2.51868 12H10.815C11.4698 12 12.0002 11.4696 12.0002 10.8148V2.5185C12.0002 1.86368 11.4698 1.33331 10.815 1.33331ZM4.88905 9.62961H3.70387V5.48146H4.88905V9.62961ZM7.25942 9.62961H6.07424V3.70368H7.25942V9.62961ZM9.62979 9.62961H8.44461V7.25924H9.62979V9.62961Z" fill="#142137"/>
</svg>
