<svg width="32" height="32" viewBox="0 0 32 32" fill="none" xmlns="http://www.w3.org/2000/svg">
<path d="M9 7C9.55228 7 10 6.55228 10 6C10 5.44772 9.55228 5 9 5C8.44772 5 8 5.44772 8 6C8 6.55228 8.44772 7 9 7Z" fill="#141A39"/>
<path d="M26 2H6C5.46957 2 4.96086 2.21071 4.58579 2.58579C4.21071 2.96086 4 3.46957 4 4V8C4 8.53043 4.21071 9.03914 4.58579 9.41421C4.96086 9.78929 5.46957 10 6 10H15V14H17V10H26C26.5304 10 27.0391 9.78929 27.4142 9.41421C27.7893 9.03914 28 8.53043 28 8V4C28 3.46957 27.7893 2.96086 27.4142 2.58579C27.0391 2.21071 26.5304 2 26 2ZM26 8H6V4H26V8Z" fill="#141A39"/>
<path d="M17 28V26H15V28H4V30H28V28H17Z" fill="#141A39"/>
<path d="M9 21C9.55228 21 10 20.5523 10 20C10 19.4477 9.55228 19 9 19C8.44772 19 8 19.4477 8 20C8 20.5523 8.44772 21 9 21Z" fill="#141A39"/>
<path d="M6 24H26C26.5304 24 27.0391 23.7893 27.4142 23.4142C27.7893 23.0391 28 22.5304 28 22V18C28 17.4696 27.7893 16.9609 27.4142 16.5858C27.0391 16.2107 26.5304 16 26 16H6C5.46957 16 4.96086 16.2107 4.58579 16.5858C4.21071 16.9609 4 17.4696 4 18V22C4 22.5304 4.21071 23.0391 4.58579 23.4142C4.96086 23.7893 5.46957 24 6 24ZM6 18H26V22H6V18Z" fill="#141A39"/>
</svg>
