<svg width="37" height="37" viewBox="0 0 37 37" fill="none" xmlns="http://www.w3.org/2000/svg">
<path d="M35.4587 12.3334V27.7501C35.4587 29.4459 34.0712 30.8334 32.3753 30.8334H7.70866C6.86074 30.8334 6.16699 30.1397 6.16699 29.2917C6.16699 28.4438 6.86074 27.7501 7.70866 27.7501H32.3753V12.3334C32.3753 11.4855 33.0691 10.7917 33.917 10.7917C34.7649 10.7917 35.4587 11.4855 35.4587 12.3334ZM6.16699 24.6667C3.60783 24.6667 1.54199 22.6009 1.54199 20.0417V10.7917C1.54199 8.23258 3.60783 6.16675 6.16699 6.16675H24.667C27.2262 6.16675 29.292 8.23258 29.292 10.7917V21.5834C29.292 23.2792 27.9045 24.6667 26.2087 24.6667H6.16699ZM10.792 15.4167C10.792 17.9759 12.8578 20.0417 15.417 20.0417C17.9762 20.0417 20.042 17.9759 20.042 15.4167C20.042 12.8576 17.9762 10.7917 15.417 10.7917C12.8578 10.7917 10.792 12.8576 10.792 15.4167Z" fill="#2173FF"/>
</svg>
