<svg width="24" height="24" viewBox="0 0 24 24" fill="none" xmlns="http://www.w3.org/2000/svg">
<g clip-path="url(#clip0)">
<path fill-rule="evenodd" clip-rule="evenodd" d="M19.2642 16.0697C19.6499 15.3683 19.962 14.603 20.1345 13.8094L20.8674 13.9688C20.6766 14.8463 20.3348 15.6795 19.9213 16.4312L19.2642 16.0697Z" fill="#142137"/>
<path fill-rule="evenodd" clip-rule="evenodd" d="M20.3438 12C20.3438 7.37547 16.6245 3.65625 12 3.65625V2.90625C17.0387 2.90625 21.0938 6.96125 21.0938 12H20.3438Z" fill="#142137"/>
<path fill-rule="evenodd" clip-rule="evenodd" d="M10.086 3.93736C7.06364 4.63216 4.66592 6.99533 3.93648 10.0173L3.87383 10.2768L3.60807 10.3026C2.53877 10.406 1.53007 10.7519 0.615437 11.2093L0.00585938 11.514L0.0746469 10.836C0.336799 8.25192 1.386 5.88834 3.03864 4.0479L3.59667 4.549C2.19422 6.11082 1.25289 8.08011 0.907247 10.2482C1.64126 9.93607 2.43467 9.69576 3.27307 9.58598C4.13996 6.40966 6.70492 3.94506 9.91801 3.20642L10.086 3.93736Z" fill="#142137"/>
<path fill-rule="evenodd" clip-rule="evenodd" d="M4.46387 2.66147C6.52437 1.01307 9.14896 0 12.0001 0C15.7508 0 19.0875 1.72576 21.2979 4.38572L20.721 4.86506C18.6447 2.36643 15.515 0.75 12.0001 0.75C9.32932 0.75 6.86798 1.69865 4.93239 3.24712L4.46387 2.66147Z" fill="#142137"/>
<path fill-rule="evenodd" clip-rule="evenodd" d="M22.3113 5.88464C23.3999 7.68641 24.0001 9.75143 24.0001 12C24.0001 18.1132 19.4611 23.1383 13.5 23.8881L12.8542 23.9694L13.1078 23.3699C13.491 22.4642 13.734 21.4558 13.7687 20.4157L13.7781 20.133L14.0525 20.0644C15.7204 19.6474 17.2153 18.7085 18.2913 17.4589L18.8596 17.9483C17.7418 19.2464 16.2148 20.2345 14.5044 20.7199C14.4509 21.5288 14.2846 22.3137 14.0335 23.0474C19.3125 22.0837 23.2501 17.5137 23.2501 12C23.2501 9.88929 22.6878 7.95821 21.6693 6.27248L22.3113 5.88464Z" fill="#142137"/>
<path fill-rule="evenodd" clip-rule="evenodd" d="M12.0001 17.4375C14.9899 17.4375 17.4376 14.9898 17.4376 12H18.1876C18.1876 15.404 15.4041 18.1875 12.0001 18.1875H11.989C11.8795 18.1875 11.7641 18.1875 11.6451 18.184C11.6486 18.303 11.6486 18.4184 11.6486 18.528L11.6486 18.5391C11.6486 20.4319 11.0803 22.1766 10.0936 23.6188L9.47461 23.1953C10.3769 21.8765 10.8986 20.2791 10.8986 18.5391C10.8986 18.2805 10.8979 18.0528 10.866 17.8292L10.7953 17.3342L11.2903 17.4049C11.5138 17.4369 11.7415 17.4375 12.0001 17.4375Z" fill="#142137"/>
<path fill-rule="evenodd" clip-rule="evenodd" d="M12.0001 6.5625C9.0103 6.5625 6.56257 9.01023 6.56257 12C6.56257 12.2566 6.56309 12.4492 6.59513 12.6735L6.65628 13.1016H6.18757C4.20525 13.1016 2.36431 13.797 0.941398 14.9769L0.462646 14.3996C1.92918 13.1835 3.79888 12.4405 5.8167 12.359C5.81256 12.2409 5.81257 12.126 5.81257 12.0094V12C5.81257 8.59602 8.59609 5.8125 12.0001 5.8125V6.5625Z" fill="#142137"/>
<path fill-rule="evenodd" clip-rule="evenodd" d="M14.1788 8.12084C13.0405 8.28469 11.5779 8.77494 10.2673 10.0855C8.95671 11.3961 8.46645 12.8587 8.3026 13.997C8.22057 14.567 8.2207 15.0543 8.24106 15.3972C8.24717 15.5001 8.25508 15.5897 8.2631 15.6645C8.33784 15.6725 8.4275 15.6804 8.53036 15.6865C8.87327 15.7069 9.36059 15.707 9.93054 15.625C11.0688 15.4611 12.5315 14.9709 13.842 13.6603C15.1526 12.3497 15.6429 10.8871 15.8067 9.74878C15.8888 9.17883 15.8886 8.6915 15.8683 8.3486C15.8622 8.24574 15.8543 8.15608 15.8462 8.08134C15.7715 8.07332 15.6818 8.06541 15.579 8.0593C15.2361 8.03894 14.7488 8.0388 14.1788 8.12084ZM16.1779 7.74967C16.5455 7.67537 16.5455 7.67555 16.5456 7.67575L16.5459 7.67734L16.5465 7.68057L16.5484 7.69074C16.55 7.69916 16.5521 7.71083 16.5547 7.72563C16.5597 7.75524 16.5664 7.79739 16.5737 7.85108C16.5884 7.95842 16.6056 8.11213 16.617 8.30415C16.6397 8.68781 16.6396 9.22676 16.5491 9.85563C16.3678 11.115 15.8227 12.7403 14.3724 14.1906C12.922 15.641 11.2968 16.1861 10.0374 16.3673C9.40852 16.4578 8.86957 16.458 8.48591 16.4352C8.29389 16.4238 8.14018 16.4066 8.03284 16.392C7.97915 16.3846 7.937 16.3779 7.9074 16.3729C7.89259 16.3704 7.88092 16.3682 7.8725 16.3667L7.86233 16.3647L7.85911 16.3641L7.85751 16.3638C7.85731 16.3638 7.85713 16.3637 7.93143 15.9962C7.56386 16.0704 7.56383 16.0703 7.56379 16.0701L7.5637 16.0696L7.56347 16.0685L7.56283 16.0652L7.5609 16.0551C7.55933 16.0467 7.55722 16.035 7.55469 16.0202C7.54964 15.9906 7.54294 15.9484 7.53561 15.8947C7.52096 15.7874 7.50378 15.6337 7.49238 15.4417C7.4696 15.058 7.46973 14.5191 7.56025 13.8902C7.74153 12.6308 8.28662 11.0055 9.73697 9.5552C11.1873 8.10486 12.8126 7.55976 14.0719 7.37849C14.7008 7.28797 15.2398 7.28784 15.6234 7.31062C15.8155 7.32202 15.9692 7.33919 16.0765 7.35385C16.1302 7.36117 16.1723 7.36788 16.2019 7.37293C16.2168 7.37545 16.2284 7.37757 16.2368 7.37914L16.247 7.38107L16.2502 7.38171L16.2514 7.38193L16.2518 7.38202C16.252 7.38206 16.2522 7.3821 16.1779 7.74967ZM7.93143 15.9962L7.56386 16.0704L7.61317 16.3144L7.85713 16.3637L7.93143 15.9962ZM16.1779 7.74967L16.2522 7.3821L16.4962 7.43141L16.5455 7.67537L16.1779 7.74967Z" fill="#142137"/>
<path fill-rule="evenodd" clip-rule="evenodd" d="M6.00884 16.3543C4.91231 16.4968 3.50253 16.9358 2.22925 18.1231L1.71777 17.5745C3.13278 16.2551 4.7019 15.7678 5.91221 15.6106C6.51701 15.532 7.03428 15.5354 7.40223 15.5588C7.58638 15.5705 7.7337 15.5872 7.83655 15.6013C7.88799 15.6084 7.92837 15.6148 7.95672 15.6196C7.9709 15.622 7.98208 15.624 7.99014 15.6255L7.99988 15.6274L8.00298 15.628L8.00407 15.6282L8.00451 15.6283C8.00469 15.6283 8.00487 15.6283 7.93132 15.9961C8.29904 15.9225 8.29908 15.9227 8.29911 15.9229L8.2992 15.9233L8.29942 15.9244L8.30002 15.9275L8.30187 15.9373C8.30336 15.9454 8.30537 15.9566 8.30778 15.9708C8.31259 15.9992 8.31899 16.0397 8.32602 16.0912C8.34006 16.1942 8.35664 16.3418 8.36805 16.5264C8.39083 16.8951 8.39308 17.4137 8.31212 18.021C8.15006 19.2364 7.65321 20.8138 6.31641 22.2461L5.76811 21.7343C6.97428 20.442 7.42196 19.0223 7.56869 17.9218C7.64212 17.3711 7.63983 16.902 7.61948 16.5726C7.6137 16.4792 7.60649 16.3972 7.59918 16.3279C7.52994 16.3205 7.44799 16.3132 7.35468 16.3073C7.02558 16.2864 6.55745 16.283 6.00884 16.3543ZM7.93132 15.9961L8.29904 15.9225L8.25001 15.6774L8.00487 15.6283L7.93132 15.9961Z" fill="#142137"/>
<path d="M14.1072 10.5833C14.5084 10.5833 14.8337 10.258 14.8337 9.85669C14.8337 9.45542 14.5084 9.13013 14.1072 9.13013C13.7059 9.13013 13.3806 9.45542 13.3806 9.85669C13.3806 10.258 13.7059 10.5833 14.1072 10.5833Z" fill="#142137"/>
</g>
<defs>
<clipPath id="clip0">
<rect width="24" height="24" fill="white"/>
</clipPath>
</defs>
</svg>
