<svg width="32" height="32" viewBox="0 0 32 32" fill="none" xmlns="http://www.w3.org/2000/svg">
<path d="M26 24.005H6C5.46973 24.0045 4.96133 23.7936 4.58637 23.4186C4.21141 23.0437 4.00053 22.5353 4 22.005V8.005C4.00053 7.47473 4.21141 6.96633 4.58637 6.59138C4.96133 6.21642 5.46973 6.00553 6 6.005H26C26.5303 6.00553 27.0387 6.21642 27.4136 6.59138C27.7886 6.96633 27.9995 7.47473 28 8.005V22.005C27.9992 22.5352 27.7882 23.0434 27.4133 23.4183C27.0384 23.7932 26.5302 24.0042 26 24.005ZM6 8.005V22.005H26V8.005H6Z" fill="#141A39"/>
<path d="M2 26.005H30V28.005H2V26.005Z" fill="#141A39"/>
</svg>
