<svg width="246" height="98" viewBox="0 0 246 98" fill="none" xmlns="http://www.w3.org/2000/svg">
<path d="M88.4228 36.4248C86.0868 36.4248 84.1996 38.312 84.1996 40.648C84.1996 42.9839 86.0868 44.8712 88.4228 44.8712H93.7017C96.0377 44.8712 97.9249 46.7584 97.9249 49.0943V53.8454C97.9249 56.1814 99.8121 58.0686 102.148 58.0686C104.484 58.0686 106.371 56.1814 106.371 53.8454V46.9827V38.0085" stroke="#FD6871" stroke-width="3" stroke-miterlimit="10"/>
<path d="M107.691 68.0989L0 97.6611V38.5366L107.691 68.0989Z" fill="url(#paint0_linear)"/>
<path d="M118.249 29.5624H154.674V16.8928H118.249C114.752 16.8928 111.914 19.7303 111.914 23.2276C111.914 26.7249 114.752 29.5624 118.249 29.5624Z" fill="#FD6871"/>
<path d="M111.386 29.5623H95.5494V37.4807H111.386V29.5623Z" fill="#B9C5E0"/>
<path d="M86.5751 30.6181C86.5751 35.5803 90.5872 39.5923 95.5494 39.5923C100.512 39.5923 104.524 35.5803 104.524 30.6181V26.3949C104.524 21.4327 100.512 17.4207 95.5494 17.4207C90.5872 17.4207 86.5751 21.4327 86.5751 26.3949V30.6181Z" fill="#B9C5E0"/>
<path d="M204.824 16.8928L154.674 42.2319V29.5624H111.122C108.061 29.5624 105.579 32.0435 105.579 35.1053V38.0087C127.025 59.4545 161.735 59.4545 183.18 38.0087L206.936 16.8928H204.824Z" fill="#002D96"/>
<path d="M200.601 42.2318H154.674V29.5623H161.009C181.003 29.5623 195.361 31.1459 200.601 42.2318Z" fill="#B9C5E0"/>
<path d="M224.884 31.6738C224.884 37.5071 217.322 42.2318 207.991 42.2318H200.601C200.601 38.7345 203.438 35.897 206.936 35.897H218.549C220.885 35.897 222.773 34.0098 222.773 31.6738H224.884Z" fill="#B9C5E0"/>
<path d="M204.824 16.8927L215.382 0H228.052L206.936 16.8927H204.824Z" fill="#FD6871"/>
<path d="M222.772 31.6737L233.33 14.781H246L224.884 31.6737H222.772Z" fill="#FD6871"/>
<path d="M128.609 53.0665C131.235 49.9387 130.826 45.28 127.698 42.6537L117.589 34.1678C116.032 32.8612 113.696 33.0592 112.389 34.6297C111.083 36.187 111.281 38.5229 112.851 39.8295L128.609 53.0665Z" fill="#B9C5E0"/>
<path d="M122.644 53.0664C124.294 51.4167 126.973 51.4167 128.622 53.0664L117.193 64.4029L115.082 63.3472L122.644 53.0664Z" fill="#B9C5E0"/>
<path d="M115.082 63.3477L112.442 65.9871H117.193V64.4035L115.082 63.3477Z" fill="#FD6871"/>
<path d="M104.524 26.3948H88.6868V29.5622H104.524V26.3948Z" fill="#002D96"/>
<path d="M109.803 65.459H107.691V70.738H109.803V65.459Z" fill="#002D96"/>
<path d="M119.305 66.5148H110.858L109.802 65.459V70.738L110.858 69.6822H119.305" fill="#002D96"/>
<path d="M119.305 69.6825C120.179 69.6825 120.888 68.9735 120.888 68.0988C120.888 67.2242 120.179 66.5151 119.305 66.5151C118.43 66.5151 117.721 67.2242 117.721 68.0988C117.721 68.9735 118.43 69.6825 119.305 69.6825Z" fill="#002D96"/>
<path d="M107.691 64.4033C109.737 64.4033 111.387 66.053 111.387 68.0986C111.387 70.1442 109.737 71.7939 107.691 71.7939" fill="#002D96"/>
<path d="M117.193 65.9873H112.442V70.2105H117.193V65.9873Z" fill="#FD6871"/>
<path d="M88.1588 32.7297C89.3201 32.7297 90.2704 31.7795 90.2704 30.6181V25.3391C90.2704 24.1778 89.3201 23.2275 88.1588 23.2275H86.0472V32.7297H88.1588Z" fill="#002D96"/>
<path d="M89.2147 38.0087C90.0893 38.0087 90.7984 37.2996 90.7984 36.425C90.7984 35.5504 90.0893 34.8413 89.2147 34.8413C88.34 34.8413 87.631 35.5504 87.631 36.425C87.631 37.2996 88.34 38.0087 89.2147 38.0087Z" fill="#FD6871"/>
<defs>
<linearGradient id="paint0_linear" x1="108" y1="68.1526" x2="-2.22403e-07" y2="68.1526" gradientUnits="userSpaceOnUse">
<stop stop-color="#B9C5E0"/>
<stop offset="1" stop-color="#B9C5E0" stop-opacity="0"/>
</linearGradient>
</defs>
</svg>
