<svg width="32" height="32" viewBox="0 0 32 32" fill="none" xmlns="http://www.w3.org/2000/svg">
<path d="M25.9994 18C25.115 18.0026 24.2564 18.2986 23.5583 18.8415C22.8601 19.3844 22.3618 20.1435 22.1414 21H16.9994V11H22.1414C22.3848 11.9427 22.9636 12.7642 23.7694 13.3106C24.5751 13.857 25.5525 14.0908 26.5184 13.9681C27.4842 13.8455 28.3721 13.3747 29.0157 12.6442C29.6593 11.9137 30.0143 10.9736 30.0143 10C30.0143 9.02644 29.6593 8.08628 29.0157 7.35578C28.3721 6.62527 27.4842 6.15457 26.5184 6.03189C25.5525 5.90922 24.5751 6.143 23.7694 6.68941C22.9636 7.23582 22.3848 8.05735 22.1414 9.00001H16.9994C16.4691 9.00054 15.9607 9.21142 15.5857 9.58638C15.2108 9.96134 14.9999 10.4697 14.9994 11V15H9.85736C9.61396 14.0574 9.03513 13.2358 8.22935 12.6894C7.42357 12.143 6.44617 11.9092 5.48036 12.0319C4.51454 12.1546 3.62662 12.6253 2.98304 13.3558C2.33945 14.0863 1.98438 15.0264 1.98438 16C1.98438 16.9736 2.33945 17.9137 2.98304 18.6442C3.62662 19.3747 4.51454 19.8455 5.48036 19.9681C6.44617 20.0908 7.42357 19.857 8.22935 19.3106C9.03513 18.7642 9.61396 17.9427 9.85736 17H14.9994V21C14.9999 21.5303 15.2108 22.0387 15.5857 22.4136C15.9607 22.7886 16.4691 22.9995 16.9994 23H22.1414C22.3297 23.7226 22.7168 24.3778 23.2588 24.8914C23.8008 25.405 24.476 25.7564 25.2076 25.9055C25.9393 26.0547 26.6981 25.9957 27.3979 25.7353C28.0977 25.4749 28.7105 25.0235 29.1666 24.4323C29.6228 23.8411 29.904 23.1339 29.9784 22.3909C30.0528 21.6479 29.9174 20.899 29.5876 20.2291C29.2577 19.5592 28.7466 18.9952 28.1124 18.6012C27.4781 18.2072 26.7461 17.9989 25.9994 18ZM25.9994 8.00001C26.3949 8.00001 26.7816 8.11731 27.1105 8.33707C27.4394 8.55683 27.6957 8.86919 27.8471 9.23464C27.9985 9.6001 28.0381 10.0022 27.9609 10.3902C27.8838 10.7782 27.6933 11.1345 27.4136 11.4142C27.1339 11.6939 26.7775 11.8844 26.3895 11.9616C26.0016 12.0388 25.5994 11.9991 25.234 11.8478C24.8685 11.6964 24.5562 11.44 24.3364 11.1111C24.1167 10.7823 23.9994 10.3956 23.9994 10C23.9999 9.46974 24.2108 8.96134 24.5857 8.58638C24.9607 8.21142 25.4691 8.00054 25.9994 8.00001ZM5.99936 18C5.6038 18 5.21712 17.8827 4.88822 17.6629C4.55932 17.4432 4.30297 17.1308 4.1516 16.7654C4.00022 16.3999 3.96062 15.9978 4.03779 15.6098C4.11496 15.2219 4.30544 14.8655 4.58514 14.5858C4.86485 14.3061 5.22122 14.1156 5.60918 14.0384C5.99714 13.9613 6.39927 14.0009 6.76473 14.1523C7.13018 14.3036 7.44253 14.56 7.6623 14.8889C7.88206 15.2178 7.99936 15.6044 7.99936 16C7.99883 16.5303 7.78794 17.0387 7.41299 17.4136C7.03803 17.7886 6.52963 17.9995 5.99936 18ZM25.9994 24C25.6038 24 25.2171 23.8827 24.8882 23.6629C24.5593 23.4432 24.303 23.1308 24.1516 22.7654C24.0002 22.3999 23.9606 21.9978 24.0378 21.6098C24.115 21.2219 24.3054 20.8655 24.5851 20.5858C24.8649 20.3061 25.2212 20.1156 25.6092 20.0384C25.9971 19.9613 26.3993 20.0009 26.7647 20.1523C27.1302 20.3036 27.4425 20.56 27.6623 20.8889C27.8821 21.2178 27.9994 21.6044 27.9994 22C27.9988 22.5303 27.7879 23.0387 27.413 23.4136C27.038 23.7886 26.5296 23.9995 25.9994 24Z" fill="#141A39"/>
</svg>
