<svg width="20" height="20" viewBox="0 0 20 20" fill="none" xmlns="http://www.w3.org/2000/svg">
<circle cx="10" cy="10" r="10" fill="#2173FF"/>
<path d="M9.38 11.934V9.708C10.136 9.67067 10.7147 9.512 11.116 9.232C11.5267 8.94267 11.732 8.518 11.732 7.958V7.762C11.732 7.33267 11.6013 7.00133 11.34 6.768C11.0787 6.52533 10.7287 6.404 10.29 6.404C9.82333 6.404 9.45 6.53933 9.17 6.81C8.89 7.08067 8.69867 7.426 8.596 7.846L7.266 7.314C7.35 7.02467 7.47133 6.74467 7.63 6.474C7.798 6.20333 8.008 5.96533 8.26 5.76C8.512 5.54533 8.81067 5.37733 9.156 5.256C9.50133 5.12533 9.898 5.06 10.346 5.06C10.8033 5.06 11.2187 5.12533 11.592 5.256C11.9653 5.38667 12.2827 5.57333 12.544 5.816C12.8053 6.04933 13.006 6.33867 13.146 6.684C13.286 7.02 13.356 7.39333 13.356 7.804C13.356 8.224 13.2813 8.602 13.132 8.938C12.992 9.26467 12.8007 9.54467 12.558 9.778C12.3247 10.0113 12.0587 10.2027 11.76 10.352C11.4613 10.492 11.1533 10.59 10.836 10.646V11.934H9.38ZM10.122 15.168C9.76733 15.168 9.506 15.084 9.338 14.916C9.17933 14.7387 9.1 14.5147 9.1 14.244V14.006C9.1 13.7353 9.17933 13.516 9.338 13.348C9.506 13.1707 9.76733 13.082 10.122 13.082C10.4767 13.082 10.7333 13.1707 10.892 13.348C11.06 13.516 11.144 13.7353 11.144 14.006V14.244C11.144 14.5147 11.06 14.7387 10.892 14.916C10.7333 15.084 10.4767 15.168 10.122 15.168Z" fill="white"/>
</svg>
