<svg width="20" height="20" viewBox="0 0 20 20" fill="none" xmlns="http://www.w3.org/2000/svg">
<circle cx="10" cy="10" r="10" fill="#2173FF"/>
<path d="M9.862 6.418C9.54467 6.418 9.31133 6.34333 9.162 6.194C9.022 6.04467 8.952 5.85333 8.952 5.62V5.382C8.952 5.14867 9.022 4.95733 9.162 4.808C9.31133 4.65867 9.54467 4.584 9.862 4.584C10.1793 4.584 10.408 4.65867 10.548 4.808C10.688 4.95733 10.758 5.14867 10.758 5.382V5.62C10.758 5.85333 10.688 6.04467 10.548 6.194C10.408 6.34333 10.1793 6.418 9.862 6.418ZM9.092 7.72H10.618V15H9.092V7.72Z" fill="white"/>
</svg>
