<svg width="24" height="24" viewBox="0 0 24 24" fill="none" xmlns="http://www.w3.org/2000/svg">
<g clip-path="url(#clip0)">
<path fill-rule="evenodd" clip-rule="evenodd" d="M19.2637 16.0697C19.6495 15.3682 19.9615 14.603 20.134 13.8094L20.8669 13.9687C20.6761 14.8462 20.3343 15.6794 19.9208 16.4311L19.2637 16.0697Z" fill="#002D96"/>
<path fill-rule="evenodd" clip-rule="evenodd" d="M20.3438 12C20.3438 7.37547 16.6245 3.65625 12 3.65625V2.90625C17.0387 2.90625 21.0938 6.96125 21.0938 12H20.3438Z" fill="#002D96"/>
<path fill-rule="evenodd" clip-rule="evenodd" d="M10.086 3.93736C7.06364 4.63216 4.66592 6.99533 3.93648 10.0173L3.87383 10.2768L3.60807 10.3026C2.53877 10.406 1.53007 10.7519 0.615437 11.2093L0.00585938 11.514L0.0746469 10.836C0.336799 8.25192 1.386 5.88834 3.03864 4.0479L3.59667 4.549C2.19422 6.11082 1.25289 8.08011 0.907247 10.2482C1.64126 9.93607 2.43467 9.69576 3.27307 9.58598C4.13996 6.40966 6.70492 3.94506 9.91801 3.20642L10.086 3.93736Z" fill="#002D96"/>
<path fill-rule="evenodd" clip-rule="evenodd" d="M4.46387 2.66147C6.52437 1.01307 9.14896 0 12.0001 0C15.7508 0 19.0875 1.72576 21.2979 4.38572L20.721 4.86506C18.6447 2.36643 15.515 0.75 12.0001 0.75C9.32932 0.75 6.86798 1.69865 4.93239 3.24712L4.46387 2.66147Z" fill="#002D96"/>
<path fill-rule="evenodd" clip-rule="evenodd" d="M22.311 5.88458C23.3996 7.68635 23.9998 9.75137 23.9998 12C23.9998 18.1131 19.4609 23.1382 13.4998 23.8881L12.854 23.9693L13.1076 23.3699C13.4908 22.4642 13.7337 21.4558 13.7684 20.4156L13.7778 20.1329L14.0522 20.0643C15.7202 19.6473 17.215 18.7084 18.2911 17.4588L18.8594 17.9482C17.7416 19.2463 16.2146 20.2345 14.5041 20.7199C14.4507 21.5287 14.2843 22.3136 14.0332 23.0474C19.3123 22.0837 23.2498 17.5136 23.2498 12C23.2498 9.88922 22.6876 7.95815 21.6691 6.27242L22.311 5.88458Z" fill="#002D96"/>
<path fill-rule="evenodd" clip-rule="evenodd" d="M12.0001 17.4375C14.9899 17.4375 17.4376 14.9898 17.4376 12H18.1876C18.1876 15.404 15.4041 18.1875 12.0001 18.1875H11.989C11.8795 18.1875 11.7641 18.1875 11.6451 18.184C11.6486 18.303 11.6486 18.4184 11.6486 18.528L11.6486 18.5391C11.6486 20.4319 11.0803 22.1766 10.0936 23.6188L9.47461 23.1953C10.3769 21.8765 10.8986 20.2791 10.8986 18.5391C10.8986 18.2805 10.8979 18.0528 10.866 17.8292L10.7953 17.3342L11.2903 17.4049C11.5138 17.4369 11.7415 17.4375 12.0001 17.4375Z" fill="#002D96"/>
<path fill-rule="evenodd" clip-rule="evenodd" d="M12.0003 6.5625C9.01054 6.5625 6.56281 9.01023 6.56281 12C6.56281 12.2566 6.56333 12.4492 6.59537 12.6735L6.65652 13.1016H6.18781C4.20549 13.1016 2.36455 13.797 0.941642 14.9769L0.462891 14.3996C1.92943 13.1835 3.79912 12.4405 5.81694 12.359C5.81281 12.2409 5.81281 12.126 5.81281 12.0094V12C5.81281 8.59602 8.59633 5.8125 12.0003 5.8125V6.5625Z" fill="#002D96"/>
<path fill-rule="evenodd" clip-rule="evenodd" d="M14.1786 8.12078C13.0403 8.28462 11.5776 8.77488 10.2671 10.0855C8.95646 11.3961 8.4662 12.8587 8.30236 13.997C8.22032 14.5669 8.22046 15.0543 8.24082 15.3972C8.24692 15.5 8.25484 15.5897 8.26285 15.6644C8.3376 15.6724 8.42726 15.6804 8.53012 15.6865C8.87302 15.7068 9.36035 15.707 9.9303 15.6249C11.0686 15.4611 12.5312 14.9708 13.8418 13.6602C15.1524 12.3496 15.6427 10.887 15.8065 9.74872C15.8885 9.17877 15.8884 8.69144 15.868 8.34854C15.8619 8.24568 15.854 8.15602 15.846 8.08127C15.7713 8.07326 15.6816 8.06534 15.5787 8.05924C15.2358 8.03888 14.7485 8.03874 14.1786 8.12078ZM16.1777 7.74961C16.5452 7.67531 16.5453 7.67549 16.5453 7.67568L16.5456 7.67728L16.5463 7.68051L16.5482 7.69068C16.5498 7.6991 16.5519 7.71077 16.5544 7.72557C16.5595 7.75518 16.5662 7.79733 16.5735 7.85101C16.5881 7.95835 16.6053 8.11207 16.6167 8.30409C16.6395 8.68775 16.6394 9.2267 16.5488 9.85557C16.3676 11.1149 15.8225 12.7402 14.3721 14.1906C12.9218 15.6409 11.2965 16.186 10.0372 16.3673C9.40827 16.4578 8.86933 16.4579 8.48567 16.4351C8.29365 16.4237 8.13993 16.4066 8.03259 16.3919C7.9789 16.3846 7.93676 16.3779 7.90715 16.3728C7.89235 16.3703 7.88068 16.3682 7.87226 16.3666L7.86209 16.3647L7.85886 16.364L7.85726 16.3637C7.85707 16.3637 7.85689 16.3637 7.93118 15.9961C7.56362 16.0704 7.56358 16.0702 7.56354 16.07L7.56345 16.0696L7.56322 16.0684L7.56259 16.0652L7.56066 16.055C7.55908 16.0466 7.55697 16.0349 7.55445 16.0201C7.5494 15.9905 7.54269 15.9484 7.53536 15.8947C7.52071 15.7873 7.50354 15.6336 7.49213 15.4416C7.46935 15.0579 7.46949 14.519 7.56001 13.8901C7.74128 12.6308 8.28638 11.0055 9.73672 9.55514C11.1871 8.1048 12.8123 7.5597 14.0717 7.37843C14.7006 7.28791 15.2395 7.28778 15.6232 7.31056C15.8152 7.32196 15.9689 7.33913 16.0763 7.35378C16.13 7.36111 16.1721 7.36782 16.2017 7.37287C16.2165 7.37539 16.2282 7.37751 16.2366 7.37908L16.2468 7.38101L16.25 7.38164L16.2511 7.38187L16.2516 7.38196C16.2518 7.382 16.252 7.38204 16.1777 7.74961ZM7.93118 15.9961L7.56362 16.0704L7.61293 16.3143L7.85689 16.3637L7.93118 15.9961ZM16.1777 7.74961L16.252 7.38204L16.4959 7.43135L16.5452 7.67531L16.1777 7.74961Z" fill="#002D96"/>
<path fill-rule="evenodd" clip-rule="evenodd" d="M6.00884 16.3544C4.91231 16.4968 3.50253 16.9359 2.22925 18.1231L1.71777 17.5746C3.13278 16.2552 4.7019 15.7679 5.91221 15.6106C6.51701 15.532 7.03428 15.5355 7.40223 15.5589C7.58638 15.5706 7.7337 15.5873 7.83655 15.6014C7.88799 15.6085 7.92837 15.6149 7.95672 15.6197C7.9709 15.6221 7.98208 15.6241 7.99014 15.6256L7.99988 15.6274L8.00298 15.628L8.00407 15.6282L8.00451 15.6283C8.00469 15.6284 8.00487 15.6284 7.93132 15.9961C8.29904 15.9226 8.29908 15.9228 8.29911 15.9229L8.2992 15.9234L8.29942 15.9245L8.30002 15.9276L8.30187 15.9374C8.30336 15.9455 8.30537 15.9567 8.30778 15.9709C8.31259 15.9993 8.31899 16.0397 8.32602 16.0913C8.34006 16.1943 8.35664 16.3419 8.36805 16.5264C8.39083 16.8952 8.39308 17.4138 8.31212 18.021C8.15006 19.2365 7.65321 20.8138 6.31641 22.2461L5.76811 21.7344C6.97428 20.4421 7.42196 19.0224 7.56869 17.9219C7.64212 17.3712 7.63983 16.9021 7.61948 16.5727C7.6137 16.4793 7.60649 16.3973 7.59918 16.328C7.52994 16.3206 7.44799 16.3133 7.35468 16.3074C7.02558 16.2865 6.55745 16.2831 6.00884 16.3544ZM7.93132 15.9961L8.29904 15.9226L8.25001 15.6774L8.00487 15.6284L7.93132 15.9961Z" fill="#002D96"/>
<path d="M14.1074 10.5832C14.5087 10.5832 14.834 10.2579 14.834 9.85663C14.834 9.45536 14.5087 9.13007 14.1074 9.13007C13.7062 9.13007 13.3809 9.45536 13.3809 9.85663C13.3809 10.2579 13.7062 10.5832 14.1074 10.5832Z" fill="#002D96"/>
</g>
<defs>
<clipPath id="clip0">
<rect width="24" height="24" fill="white"/>
</clipPath>
</defs>
</svg>
