<svg xmlns="http://www.w3.org/2000/svg" version="1.1" x="0" y="0" viewBox="0 0 32 32" xml:space="preserve"><path fill="#B9C5E0" stroke="#B9C5E0" stroke-width="1" d="M16 16.39c3.968 0 7.195-3.228 7.195-7.195S19.968 2 16 2 8.805 5.228 8.805 9.195 12.032 16.39 16 16.39zM16 4a5.202 5.202 0 0 1 5.195 5.195c0 2.865-2.331 5.195-5.195 5.195s-5.195-2.331-5.195-5.195A5.202 5.202 0 0 1 16 4z"/><path  fill="#B9C5E0" stroke="#B9C5E0" stroke-width="1" d="M29.64 25.166c-.292-2.612-1.174-5.11-2.551-7.225a3.657 3.657 0 0 0-2.417-1.623c-1-.184-2.016.047-2.853.653A9.854 9.854 0 0 1 16 18.862a9.851 9.851 0 0 1-5.795-1.873 3.78 3.78 0 0 0-2.894-.655 3.645 3.645 0 0 0-2.405 1.613c-.313.482-.605.991-.867 1.512a16.786 16.786 0 0 0-1.678 5.708c-.09.801.17 1.608.713 2.216a2.93 2.93 0 0 0 2.178.975h.003l21.486-.001c.833 0 1.629-.356 2.185-.977a2.853 2.853 0 0 0 .714-2.214zm-2.204.88a.936.936 0 0 1-.694.311H5.254h-.001a.92.92 0 0 1-.688-.309.838.838 0 0 1-.216-.66c.199-1.787.695-3.48 1.477-5.031.229-.454.483-.898.757-1.32a1.666 1.666 0 0 1 1.415-.766c.366 0 .727.117 1.038.342A11.844 11.844 0 0 0 16 20.863c2.526 0 4.944-.785 6.993-2.271.39-.283.855-.39 1.314-.306.454.085.847.35 1.105.747 1.207 1.854 1.981 4.052 2.238 6.355a.836.836 0 0 1-.214.658z"/></svg>