<svg width="739" height="322" viewBox="0 0 739 322" fill="none" xmlns="http://www.w3.org/2000/svg">
<rect width="739" height="322" rx="16" fill="#F4F8FE"/>
<mask id="mask0_629:673" style="mask-type:alpha" maskUnits="userSpaceOnUse" x="0" y="0" width="739" height="322">
<rect width="739" height="322" rx="16" fill="#F4F8FE"/>
</mask>
<g mask="url(#mask0_629:673)">
<path opacity="0.03" fill-rule="evenodd" clip-rule="evenodd" d="M587.033 162.597C633.269 115.001 708.547 115.001 754.592 162.597C765.101 173.459 773.507 186.296 779.431 200.319L786.5 197.159C780.196 182.149 771.214 168.719 759.941 157.067C710.839 106.311 630.785 106.311 581.683 157.067C577.479 161.412 573.467 166.152 569.837 171.09L575.951 175.829C579.39 171.287 583.211 166.745 587.033 162.597ZM640.338 163.98C649.891 160.227 660.017 158.45 670.335 158.252V150.352C659.253 150.352 648.171 152.525 637.854 156.475L640.338 163.98ZM692.498 234.88C696.719 234.88 700.14 231.343 700.14 226.98C700.14 222.618 696.719 219.081 692.498 219.081C688.277 219.081 684.855 222.618 684.855 226.98C684.855 231.343 688.277 234.88 692.498 234.88ZM583.212 242.385L580.155 242.78C569.647 243.965 559.712 246.927 550.541 251.667L545 254.629V248.112C545.191 227.572 550.159 207.033 559.33 188.863L566.017 192.615C558.374 207.823 553.789 224.807 552.833 241.99C560.476 238.83 568.309 236.459 576.525 235.275C579.391 214.143 588.944 194.393 603.464 179.383C607.859 174.841 612.826 170.496 618.176 166.941L622.38 173.459C617.603 176.816 613.017 180.568 608.814 184.914C594.485 199.725 585.887 218.488 583.594 239.225L583.212 242.385ZM786.118 221.056L793.569 219.278C803.695 263.517 791.087 309.336 759.941 341.726C736.251 366.016 704.917 379.644 671.673 379.842H665.368L668.234 374.115C672.819 364.438 675.876 354.167 677.022 343.306L677.405 340.145L680.461 339.749C700.523 337.381 718.673 328.493 733.003 313.681L738.353 319.211C723.641 334.221 704.726 344.094 684.282 347.057C683.136 355.55 681.035 363.648 677.786 371.548C706.828 369.769 733.959 357.13 754.593 335.8C783.825 305.584 795.671 262.727 786.118 221.056ZM753.257 299.461C775.418 260.752 769.305 211.378 738.545 179.384C725.362 165.757 708.74 156.474 690.589 152.524L689.06 160.227C705.874 163.782 720.967 172.274 733.195 184.914C761.663 214.341 767.205 259.567 746.761 295.314L753.257 299.461ZM714.852 200.514L717.335 201.107L717.909 203.674C717.916 203.732 717.932 203.836 717.954 203.986C718.563 207.987 724.085 244.294 695.173 274.18C675.112 294.918 651.802 298.473 638.236 298.473C635.944 298.473 633.842 298.473 632.123 298.274C632.887 309.927 632.505 338.564 609.387 362.857C608.239 362.165 607.139 361.472 606.039 360.78C604.942 360.089 603.845 359.398 602.7 358.708L603.464 357.919C626.2 334.417 625.435 305.977 624.48 297.09C615.883 296.3 588.179 295.51 565.634 318.814L564.87 319.604C563.532 317.432 562.195 315.062 560.857 312.692L560.857 312.692C584.549 288.795 612.061 288.202 623.334 289.19C622.379 277.538 622.952 248.506 646.643 224.017C676.449 193.009 713.324 200.119 714.852 200.514ZM630.976 290.573C639.574 291.363 667.278 292.152 689.823 268.848C712.368 245.346 711.604 216.907 710.839 208.019C702.242 207.23 674.538 206.439 651.993 229.744C629.257 253.246 630.021 281.685 630.976 290.573ZM711.414 291.165C697.085 305.977 678.934 314.667 656.962 317.235L654.096 317.629L653.714 320.592C651.804 334.614 646.454 354.561 631.551 373.126C632.547 373.42 633.543 373.742 634.529 374.06L634.53 374.06C636.192 374.597 637.826 375.124 639.385 375.497C652.95 357.524 658.491 338.761 660.783 324.739C683.138 321.58 701.861 312.297 716.764 296.893C728.992 284.253 737.399 268.453 741.602 250.481L734.151 248.704C730.33 265.095 722.687 279.513 711.414 291.165ZM624.863 201.701C637.282 188.864 652.566 180.174 670.144 175.829L672.055 183.532C655.815 187.482 641.676 195.579 630.404 207.231C616.074 222.043 607.667 241.003 605.184 263.518L604.801 266.48L601.936 266.874C588.37 268.85 569.073 274.38 551.114 289.784C550.351 287.222 549.588 284.463 548.826 281.704L548.821 281.687C566.207 267.664 584.167 261.938 597.923 259.567C600.98 236.46 609.96 217.106 624.863 201.701Z" fill="#001932"/>
</g>
<path d="M721.95 301.812C722.235 301.812 722.466 301.574 722.466 301.28C722.466 300.986 722.235 300.747 721.95 300.747C721.665 300.747 721.435 300.986 721.435 301.28C721.435 301.574 721.665 301.812 721.95 301.812Z" fill="#001932"/>
<path d="M718.431 297.032C719.076 296.779 719.759 296.66 720.455 296.646V296.114C719.707 296.114 718.96 296.26 718.264 296.527L718.431 297.032Z" fill="#001932"/>
<path d="M714.372 302.345L714.578 302.318L714.604 302.105C714.758 300.707 715.338 299.442 716.305 298.444C716.588 298.151 716.898 297.898 717.22 297.671L716.937 297.232C716.576 297.472 716.24 297.765 715.944 298.071C714.964 299.083 714.32 300.414 714.127 301.839C713.572 301.919 713.044 302.078 712.528 302.291C712.593 301.133 712.902 299.988 713.418 298.963L712.967 298.71C712.348 299.935 712.013 301.319 712 302.704V303.143L712.374 302.944C712.992 302.624 713.663 302.425 714.372 302.345Z" fill="#001932"/>
<path d="M714.836 296.939C717.955 293.73 723.033 293.73 726.139 296.939C726.848 297.671 727.415 298.537 727.815 299.482L728.292 299.269C727.867 298.257 727.261 297.352 726.5 296.566C723.188 293.145 717.787 293.145 714.475 296.566C714.191 296.859 713.921 297.179 713.676 297.512L714.088 297.831C714.32 297.525 714.578 297.219 714.836 296.939Z" fill="#001932"/>
<path d="M728.769 300.76L728.266 300.88C728.91 303.689 728.111 306.579 726.139 308.616C724.747 310.054 722.917 310.906 720.958 311.026C721.177 310.493 721.319 309.947 721.396 309.375C722.775 309.175 724.051 308.509 725.044 307.497L724.683 307.125C723.716 308.123 722.492 308.722 721.138 308.882L720.932 308.909L720.906 309.122C720.829 309.854 720.623 310.546 720.313 311.199L720.12 311.585H720.545C722.788 311.571 724.902 310.653 726.5 309.015C728.601 306.832 729.452 303.743 728.769 300.76Z" fill="#001932"/>
<path d="M726.049 306.166C727.544 303.556 727.132 300.228 725.057 298.071C724.168 297.152 723.046 296.526 721.822 296.26L721.719 296.779C722.853 297.019 723.871 297.591 724.696 298.444C726.617 300.427 726.99 303.476 725.611 305.886L726.049 306.166Z" fill="#001932"/>
<path d="M723.625 299.535L723.458 299.495C723.355 299.469 720.867 298.989 718.856 301.08C717.258 302.731 717.22 304.688 717.284 305.473C716.524 305.407 714.668 305.447 713.069 307.058C713.16 307.218 713.25 307.377 713.34 307.524L713.392 307.471C714.912 305.9 716.781 305.953 717.361 306.006C717.426 306.605 717.477 308.522 715.944 310.107L715.892 310.16C716.047 310.253 716.188 310.347 716.343 310.44C717.903 308.802 717.928 306.871 717.877 306.086C717.993 306.099 718.135 306.099 718.289 306.099C719.205 306.099 720.777 305.86 722.13 304.462C724.154 302.371 723.677 299.815 723.664 299.708L723.625 299.535ZM721.769 304.102C720.249 305.673 718.38 305.62 717.8 305.567C717.735 304.968 717.684 303.05 719.217 301.466C720.738 299.895 722.607 299.948 723.187 300.001C723.239 300.6 723.29 302.518 721.769 304.102Z" fill="#001932"/>
<path d="M723.226 305.607C722.26 306.605 721.035 307.191 719.553 307.364L719.36 307.391L719.334 307.591C719.205 308.536 718.844 309.881 717.839 311.132C718.019 311.185 718.2 311.252 718.367 311.292C719.282 310.08 719.656 308.815 719.811 307.87C721.319 307.657 722.582 307.031 723.587 305.993C724.412 305.141 724.979 304.076 725.263 302.864L724.76 302.744C724.502 303.849 723.987 304.821 723.226 305.607Z" fill="#001932"/>
<path d="M720.442 297.831C719.257 298.124 718.225 298.71 717.388 299.575C716.382 300.614 715.777 301.919 715.57 303.476C714.642 303.636 713.431 304.022 712.258 304.968C712.309 305.154 712.361 305.34 712.412 305.513C713.624 304.475 714.926 304.102 715.841 303.969L716.034 303.942L716.06 303.743C716.228 302.225 716.795 300.947 717.761 299.948C718.522 299.163 719.476 298.617 720.571 298.35L720.442 297.831Z" fill="#001932"/>
</svg>
