<svg width="152" height="152" viewBox="0 0 152 152" fill="none" xmlns="http://www.w3.org/2000/svg">
					<path d="M6.64413e-06 76C1.03136e-05 34.0263 34.0264 -1.03136e-05 76 -6.64413e-06C117.974 -2.97468e-06 152 34.0264 152 76C152 117.974 117.974 152 76 152C34.0264 152 2.97468e-06 117.974 6.64413e-06 76ZM150.99 76C150.99 34.5843 117.416 1.01021 76 1.0102C34.5843 1.0102 1.01022 34.5843 1.01021 76C1.01021 117.416 34.5843 150.99 76 150.99C117.416 150.99 150.99 117.416 150.99 76Z" fill="#E6ECFA"/>
					<path d="M1.00001 76C0.447721 76 -0.00068103 75.5522 0.00658539 75C0.133431 65.3599 2.09341 55.8287 5.78517 46.916C9.60452 37.6953 15.2026 29.3171 22.2599 22.2599C29.3172 15.2026 37.6953 9.6045 46.9161 5.78515C56.1368 1.96579 66.0196 -7.95291e-06 76 -6.64413e-06C85.9805 -5.33535e-06 95.8632 1.96579 105.084 5.78515C114.305 9.60451 122.683 15.2026 129.74 22.2599C136.797 29.3171 142.395 37.6953 146.215 46.9161C149.907 55.8287 151.867 65.3599 151.993 75C152.001 75.5522 151.552 76 151 76L145.4 76C144.848 76 144.401 75.5522 144.393 75C144.266 66.358 142.503 57.815 139.193 49.8245C135.756 41.5258 130.718 33.9854 124.366 27.6339C118.015 21.2824 110.474 16.2441 102.176 12.8066C93.8769 9.36921 84.9824 7.59999 76 7.59999C67.0176 7.59999 58.1231 9.36921 49.8245 12.8066C41.5258 16.244 33.9854 21.2824 27.6339 27.6339C21.2824 33.9854 16.2441 41.5258 12.8066 49.8244C9.49684 57.815 7.73367 66.358 7.60732 75C7.59924 75.5522 7.15229 76 6.60001 76L1.00001 76Z" fill="#F2F6FF"/>
					<path d="M6.64413e-06 76C7.77995e-06 63.0077 3.33069 50.2324 9.674 38.8939C16.0173 27.5554 25.1614 18.0324 36.2332 11.2343C47.3049 4.4361 59.9346 0.589775 72.9161 0.0625864C85.8977 -0.464602 98.7977 2.34495 110.384 8.22295L106.946 15.0007C96.5179 9.71045 84.9079 7.18186 73.2245 7.65633C61.5411 8.1308 50.1744 11.5925 40.2099 17.7108C30.2453 23.8292 22.0156 32.3999 16.3066 42.6045C10.5976 52.8092 7.60001 64.307 7.60001 76L6.64413e-06 76Z" fill="#F7B904"/>
				</svg>