<svg height="17" viewBox="0 0 40 55" width="17" xmlns="http://www.w3.org/2000/svg"><g id="Page-1" fill="none" fill-rule="evenodd"><g id="012---Rules" fill="rgb(55,80,115)" fill-rule="nonzero" transform="translate(-1)"><path id="Rectangle-path" d="m22 25h2v6h-2z"/><path id="Shape" d="m14 12h-2.952c.144 1.888.722 5.908 2.973 7.406-.01-.135-.021-.269-.021-.406z"/><path id="Shape" d="m1.872 46.882c-.76274312.7704488-1.05328439 1.8909989-.761 2.935.40838836 1.3197413 1.6407795 2.2099828 3.022 2.183h2.867v-2h-2c-.55228475 0-1-.4477153-1-1s.44771525-1 1-1h16c.5522847 0 1 .4477153 1 1s-.4477153 1-1 1h-4v2h23c.5522847 0 1-.4477153 1-1v-4c0-.5522847-.4477153-1-1-1h-36c-.79804748.0010835-1.56317933.3182105-2.128.882zm24.128 1.118h2c.5522847 0 1 .4477153 1 1s-.4477153 1-1 1h-2c-.5522847 0-1-.4477153-1-1s.4477153-1 1-1z"/><path id="Shape" d="m10.447 54.658.658-.329c.5630948-.281576 1.2259052-.281576 1.789 0l.659.329c.3099025.1548588.6778792.1382854.9726057-.0438055.2947265-.1820908.4742093-.5037544.4743943-.8501945v-3.764h-6v3.764c.00018496.3464401.17966784.6681037.47439433.8501945.29472648.1820909.66270317.1986643.97260567.0438055z"/><path id="Shape" d="m21 33h-2v2h8v-2h-2z"/><path id="Shape" d="m4 0c-1.65685425 0-3 1.34314575-3 3v42c.86503857-.6499543 1.91799655-1.0009403 3-1h36c.5522847 0 1-.4477153 1-1v-42c0-.55228475-.4477153-1-1-1zm1 41c0 .5522847-.44771525 1-1 1s-1-.4477153-1-1v-38c0-.55228475.44771525-1 1-1s1 .44771525 1 1zm26.283-19.159c-1.046537 1.9439614-3.0752361 3.1570336-5.283 3.159v6h1c1.1045695 0 2 .8954305 2 2v3c0 .5522847-.4477153 1-1 1h-10c-.5522847 0-1-.4477153-1-1v-3c0-1.1045695.8954305-2 2-2h1v-6c-2.2077639-.0019664-4.236463-1.2150386-5.283-3.159-4.5-1-5.462-7.051-5.664-9.7-.03912204-.5535418.15349727-1.098455.53179989-1.5044429s.90827751-.6365506 1.46320011-.6365571h2.952v-1c0-1.1045695.8954305-2 2-2h14c1.1045695 0 2 .8954305 2 2v1h2.952c.5565387-.00146473 1.0885194.2290344 1.4680544.6360857.3795349.4070512.5722967.9538384.5319456 1.5089143-.207 2.645-1.173 8.701-5.669 9.696z"/><path id="Shape" d="m32 19c0 .137-.011.271-.021.406 2.251-1.5 2.829-5.519 2.974-7.414l-2.953.008z"/><path id="Shape" d="m16 19c0 2.209139 1.790861 4 4 4h6c2.209139 0 4-1.790861 4-4v-10h-14z"/></g></g></svg>