<svg width="64" height="64" viewBox="0 0 64 64" fill="none" xmlns="http://www.w3.org/2000/svg">
<g clip-path="url(#clip0)">
<mask id="mask0" mask-type="alpha" maskUnits="userSpaceOnUse" x="0" y="0" width="65" height="64">
<path fill-rule="evenodd" clip-rule="evenodd" d="M38.2546 21.403C35.2919 21.8253 31.491 23.0944 28.0985 26.4924L28.0963 26.4946C24.7062 29.8677 23.4391 33.6731 23.0174 36.6469C22.8063 38.1356 22.808 39.4116 22.8618 40.3108C22.8788 40.5936 22.9008 40.8385 22.9229 41.0403C23.1227 41.0623 23.3649 41.0842 23.6444 41.101C24.5382 41.1549 25.8075 41.1567 27.2907 40.9452C30.2534 40.5229 34.0544 39.2538 37.4468 35.8558L37.449 35.8536C40.8392 32.4805 42.1062 28.6751 42.5279 25.7013C42.739 24.2126 42.7373 22.9366 42.6835 22.0374C42.6665 21.7546 42.6445 21.5097 42.6224 21.3079C42.4226 21.2859 42.1804 21.264 41.901 21.2472C41.0072 21.1933 39.7378 21.1915 38.2546 21.403ZM43.4582 20.4712C44.3853 20.2845 44.3854 20.2849 44.3855 20.2854L44.3863 20.2895L44.3879 20.2978L44.3929 20.3241C44.3969 20.3459 44.4024 20.3762 44.4089 20.4148C44.422 20.4918 44.4394 20.6017 44.4585 20.7418C44.4965 21.0218 44.5413 21.423 44.5713 21.924C44.6313 22.925 44.6325 24.3307 44.4004 25.9677C43.9357 29.2447 42.5316 33.4659 38.7833 37.1962C35.0365 40.9486 30.8236 42.3551 27.5572 42.8207C25.9258 43.0532 24.5267 43.052 23.5307 42.9919C23.0322 42.9619 22.6332 42.917 22.3547 42.8788C22.2154 42.8597 22.1061 42.8423 22.0295 42.8291C21.9911 42.8226 21.9609 42.8171 21.9392 42.813L21.913 42.8081L21.9047 42.8064L21.9018 42.8058L21.9007 42.8056C21.9002 42.8055 21.8997 42.8054 22.0871 41.877C21.16 42.0637 21.1599 42.0633 21.1598 42.0628L21.1596 42.0617L21.159 42.0587L21.1574 42.0505L21.1524 42.0242C21.1484 42.0023 21.1429 41.972 21.1364 41.9335C21.1233 41.8564 21.1059 41.7465 21.0869 41.6065C21.0488 41.3264 21.004 40.9252 20.974 40.4242C20.914 39.4232 20.9128 38.0175 21.1449 36.3805C21.6097 33.1034 23.0138 28.882 26.7624 25.1517C30.5091 21.3995 34.7218 19.9931 37.9881 19.5275C39.6195 19.295 41.0186 19.2962 42.0146 19.3563C42.5131 19.3863 42.9121 19.4312 43.1906 19.4694C43.3299 19.4885 43.4392 19.506 43.5159 19.5191C43.5542 19.5256 43.5844 19.5311 43.6061 19.5352L43.6323 19.5402L43.6406 19.5418L43.6435 19.5424L43.6446 19.5426C43.6451 19.5427 43.6456 19.5428 43.4582 20.4712ZM22.0871 41.877L21.16 42.0637L21.2839 42.6807L21.8997 42.8054L22.0871 41.877ZM43.4582 20.4712L43.6456 19.5428L44.2614 19.6675L44.3853 20.2845L43.4582 20.4712Z" fill="#001932"/>
<path fill-rule="evenodd" clip-rule="evenodd" d="M16.8362 42.8562C13.8735 43.2785 10.0726 44.5476 6.68013 47.9456L6.68012 47.9456L5.35622 49.2716L4.01892 47.9321L5.34281 46.6061C5.34282 46.6061 5.34282 46.6061 5.34282 46.6061C9.08984 42.853 13.3031 41.4464 16.5697 40.9808C18.2012 40.7482 19.6003 40.7494 20.5962 40.8095C21.0947 40.8396 21.4937 40.8844 21.7722 40.9226C21.9115 40.9417 22.0208 40.9592 22.0975 40.9723C22.1358 40.9788 22.166 40.9843 22.1877 40.9884L22.2139 40.9934L22.2222 40.995L22.2251 40.9956L22.2263 40.9958C22.2267 40.9959 22.2272 40.996 22.0399 41.9244C22.9669 41.7377 22.967 41.7382 22.9671 41.7386L22.9673 41.7398L22.9679 41.7427L22.9695 41.751L22.9745 41.7773C22.9786 41.7991 22.984 41.8294 22.9905 41.868C23.0036 41.945 23.021 42.0549 23.0401 42.195C23.0782 42.475 23.123 42.8762 23.153 43.3772C23.2129 44.3783 23.2141 45.7839 22.982 47.4209C22.5172 50.698 21.1131 54.9192 17.3647 58.6495C17.3643 58.6499 17.3639 58.6503 17.3635 58.6508L16.0418 59.9746L14.7045 58.6351L16.0284 57.309L16.0306 57.3068C19.4207 53.9337 20.6878 50.1283 21.1095 47.1545C21.3206 45.6658 21.3189 44.3898 21.2651 43.4906C21.2482 43.2079 21.2261 42.963 21.2041 42.7611C21.0042 42.7392 20.7621 42.7172 20.4826 42.7004C19.5888 42.6465 18.3194 42.6448 16.8362 42.8562ZM22.0399 41.9244L22.9669 41.7377L22.8431 41.1207L22.2272 40.996L22.0399 41.9244Z" fill="#001932"/>
<path fill-rule="evenodd" clip-rule="evenodd" d="M21.4185 19.8014C26.1125 15.0998 31.8326 13.3842 36.803 12.9449L36.9693 14.8319C32.2943 15.2451 27.0452 16.8445 22.7558 21.1409C18.6885 25.2149 17.0044 30.157 16.5019 34.5959L16.4186 35.3314L15.6859 35.4282C11.5396 35.9759 6.12264 37.7537 1.33732 42.5468L0 41.2073C4.86966 36.3297 10.3597 34.3525 14.7144 33.6559C15.351 29.0908 17.2003 24.0264 21.4185 19.8014Z" fill="#001932"/>
<path fill-rule="evenodd" clip-rule="evenodd" d="M50.9731 27.128C50.5824 32.1178 48.8663 37.7987 44.1286 42.5451C39.9061 46.8204 34.8872 48.6309 30.2947 49.263C29.5991 53.6245 27.625 59.1229 22.7558 64L21.4185 62.6605C26.2038 57.8674 27.9787 52.4417 28.5255 48.2887L28.6222 47.5539L29.3575 47.4712C33.8394 46.9673 38.7219 45.3269 42.7859 41.211L42.7896 41.2073C47.1286 36.8613 48.7219 31.6506 49.0876 26.9799L50.9731 27.128Z" fill="#001932"/>
<path d="M38.1155 27.717C39.16 27.717 40.0067 26.8689 40.0067 25.8227C40.0067 24.7765 39.16 23.9283 38.1155 23.9283C37.071 23.9283 36.2242 24.7765 36.2242 25.8227C36.2242 26.8689 37.071 27.717 38.1155 27.717Z" fill="#001932"/>
<path fill-rule="evenodd" clip-rule="evenodd" d="M31.5522 9.38772C26.9692 9.66042 22.4403 11.3411 18.7294 14.5141L17.5015 13.0733C21.5448 9.61614 26.4722 7.79233 31.44 7.49673L31.5522 9.38772Z" fill="#001932"/>
<path fill-rule="evenodd" clip-rule="evenodd" d="M10.6856 9.09853C13.6083 6.17107 16.9734 3.92287 20.587 2.40662L21.3177 4.15382C17.9337 5.57377 14.7739 7.68251 12.0229 10.438C6.72735 15.7422 3.90062 22.5606 3.50579 29.4848C5.40424 28.6834 7.37264 28.1422 9.37266 27.862C9.97647 23.5829 11.7687 19.4232 14.7484 15.9257L16.1871 17.1553C13.2879 20.5582 11.6125 24.6405 11.1596 28.8139L11.0773 29.572L10.3203 29.6533C7.78513 29.9253 5.29369 30.6509 2.93554 31.8319L1.55753 32.522L1.56704 30.9789C1.61578 23.069 4.63892 15.155 10.6856 9.09853Z" fill="#001932"/>
<path fill-rule="evenodd" clip-rule="evenodd" d="M26.9705 0.549919C36.7668 -1.30511 47.2526 1.52631 54.8598 9.14587C67.0494 21.3553 67.0494 41.135 54.8598 53.3444L54.8571 53.3471C48.8139 59.3513 40.9154 62.4289 33.0149 62.4778L31.4743 62.4873L32.1633 61.1071C33.3424 58.7451 34.0668 56.2496 34.3384 53.7104L34.4186 52.9604L35.1664 52.8708C39.3471 52.3701 43.4236 50.7336 46.8161 47.834L48.0437 49.275C44.5453 52.2652 40.3903 54.0134 36.1277 54.6524C35.8483 56.6579 35.3077 58.6317 34.5069 60.5353C41.4165 60.1345 48.2255 57.2671 53.5239 52.0036C64.9735 40.5338 64.9731 21.9545 53.5225 10.4854C46.3779 3.3292 36.5327 0.667084 27.3219 2.41127L26.9705 0.549919Z" fill="#001932"/>
<path fill-rule="evenodd" clip-rule="evenodd" d="M49.3584 45.2402C52.5262 41.5233 54.2042 36.9871 54.4765 32.3966L56.3644 32.509C56.0693 37.4849 54.2484 42.4203 50.7968 46.4701L49.3584 45.2402Z" fill="#001932"/>
<path fill-rule="evenodd" clip-rule="evenodd" d="M48.1258 15.7828C45.863 13.471 43.1942 11.7948 40.3444 10.7527L40.9929 8.97324C44.0992 10.1091 47.0085 11.9363 49.4731 14.4533C51.9341 16.9193 53.7536 19.8271 54.933 22.9281L53.1656 23.6025C52.0761 20.7378 50.3978 18.0585 48.1324 15.7895L48.1291 15.7861L48.1258 15.7828Z" fill="#001932"/>
</mask>
<g mask="url(#mask0)">
<path d="M63.9783 31.1743C63.9783 48.4367 50.007 62.4306 32.7726 62.4306C15.5382 62.4306 1.56696 48.4367 1.56696 31.1743C1.56696 13.9119 15.5382 -0.0820618 32.7726 -0.0820618C50.007 -0.0820618 63.9783 13.9119 63.9783 31.1743Z" fill="#001932"/>
</g>
</g>
<defs>
<clipPath id="clip0">
<rect width="64" height="64" fill="white"/>
</clipPath>
</defs>
</svg>
