<svg width="16" height="16" viewBox="0 0 16 16" fill="none" xmlns="http://www.w3.org/2000/svg">
<path d="M12.9532 8.65001C12.9799 8.43668 12.9999 8.22001 12.9999 8.00001C12.9999 7.78001 12.9799 7.56334 12.9532 7.35001L14.3632 6.24668C14.4899 6.14668 14.5266 5.96668 14.4432 5.82001L13.1099 3.51001C13.0266 3.36668 12.8532 3.30668 12.7032 3.36668L11.0432 4.03668C10.6999 3.77334 10.3232 3.55001 9.91655 3.38001L9.66655 1.61334C9.63655 1.45668 9.49988 1.33334 9.33322 1.33334H6.66655C6.49988 1.33334 6.36322 1.45668 6.33655 1.61334L6.08655 3.38001C5.67988 3.55001 5.30322 3.77001 4.95988 4.03668L3.29988 3.36668C3.14988 3.31001 2.97655 3.36668 2.89322 3.51001L1.55989 5.82001C1.47655 5.96334 1.51322 6.14334 1.63989 6.24668L3.04655 7.35001C3.01989 7.56334 2.99988 7.78001 2.99988 8.00001C2.99988 8.22001 3.01989 8.43668 3.04655 8.65001L1.63989 9.75334C1.51322 9.85334 1.47655 10.0333 1.55989 10.18L2.89322 12.49C2.97655 12.6333 3.14988 12.6933 3.29988 12.6333L4.95988 11.9633C5.30322 12.2267 5.67988 12.45 6.08655 12.62L6.33655 14.3867C6.36322 14.5433 6.49988 14.6667 6.66655 14.6667H9.33322C9.49988 14.6667 9.63655 14.5433 9.66322 14.3867L9.91322 12.62C10.3199 12.45 10.6966 12.23 11.0399 11.9633L12.6999 12.6333C12.8499 12.69 13.0232 12.6333 13.1066 12.49L14.4399 10.18C14.5232 10.0367 14.4866 9.85668 14.3599 9.75334L12.9532 8.65001ZM7.99988 10.3333C6.70988 10.3333 5.66655 9.29001 5.66655 8.00001C5.66655 6.71001 6.70988 5.66668 7.99988 5.66668C9.28988 5.66668 10.3332 6.71001 10.3332 8.00001C10.3332 9.29001 9.28988 10.3333 7.99988 10.3333Z" fill="#909BAD"/>
</svg>
