<svg width="16" height="16" viewBox="0 0 16 16" fill="none" xmlns="http://www.w3.org/2000/svg">
<path d="M2.60016 8.00002C2.60016 6.86002 3.52683 5.93335 4.66683 5.93335H7.3335V4.66669H4.66683C2.82683 4.66669 1.3335 6.16002 1.3335 8.00002C1.3335 9.84002 2.82683 11.3334 4.66683 11.3334H7.3335V10.0667H4.66683C3.52683 10.0667 2.60016 9.14002 2.60016 8.00002ZM5.3335 8.66669H10.6668V7.33335H5.3335V8.66669ZM11.3335 4.66669H8.66683V5.93335H11.3335C12.4735 5.93335 13.4002 6.86002 13.4002 8.00002C13.4002 9.14002 12.4735 10.0667 11.3335 10.0667H8.66683V11.3334H11.3335C13.1735 11.3334 14.6668 9.84002 14.6668 8.00002C14.6668 6.16002 13.1735 4.66669 11.3335 4.66669Z" fill="#909BAD"/>
</svg>
