<svg width="16" height="11" viewBox="0 0 16 11" fill="none" xmlns="http://www.w3.org/2000/svg">
<path d="M7.99996 2.00002C10.5266 2.00002 12.78 3.42002 13.88 5.66669C12.78 7.91335 10.5266 9.33335 7.99996 9.33335C5.47329 9.33335 3.21996 7.91335 2.11996 5.66669C3.21996 3.42002 5.47329 2.00002 7.99996 2.00002ZM7.99996 0.666687C4.66663 0.666687 1.81996 2.74002 0.666626 5.66669C1.81996 8.59335 4.66663 10.6667 7.99996 10.6667C11.3333 10.6667 14.18 8.59335 15.3333 5.66669C14.18 2.74002 11.3333 0.666687 7.99996 0.666687ZM7.99996 4.00002C8.91996 4.00002 9.66663 4.74669 9.66663 5.66669C9.66663 6.58669 8.91996 7.33335 7.99996 7.33335C7.07996 7.33335 6.33329 6.58669 6.33329 5.66669C6.33329 4.74669 7.07996 4.00002 7.99996 4.00002ZM7.99996 2.66669C6.34663 2.66669 4.99996 4.01335 4.99996 5.66669C4.99996 7.32002 6.34663 8.66669 7.99996 8.66669C9.65329 8.66669 11 7.32002 11 5.66669C11 4.01335 9.65329 2.66669 7.99996 2.66669Z" fill="#B9C5E0"/>
</svg>
