<?xml version="1.0" ?><svg id="object" viewBox="0 0 32 32" xmlns="http://www.w3.org/2000/svg"><title/>
<path d="M24,11H8a3,3,0,0,0-3,3V28a3,3,0,0,0,3,3H24a3,3,0,0,0,3-3V14A3,3,0,0,0,24,11Zm-6.8,9A1.81,1.81,0,0,1,19,21.8v2.4A1.81,1.81,0,0,1,17.2,26H17v.6a1,1,0,0,1-2,0V26H14a1,1,0,0,1,0-2h3V22H14.8A1.81,1.81,0,0,1,13,20.2V17.8A1.81,1.81,0,0,1,14.8,16H15v-.6a1,1,0,1,1,2,0V16h1a1,1,0,0,1,0,2H15v2Z" fill="#325078"/>
<path d="M16,3a6,6,0,0,1,6,6h2A8,8,0,0,0,8,9h2A6,6,0,0,1,16,3Z" fill="#325078"/></svg>